<?xml version="1.0" encoding="UTF-8" standalone="no"?>
<!-- Created with Inkscape (http://www.inkscape.org/) -->

<svg
   xmlns:dc="http://purl.org/dc/elements/1.1/"
   xmlns:cc="http://creativecommons.org/ns#"
   xmlns:rdf="http://www.w3.org/1999/02/22-rdf-syntax-ns#"
   xmlns:svg="http://www.w3.org/2000/svg"
   xmlns="http://www.w3.org/2000/svg"
   xmlns:sodipodi="http://sodipodi.sourceforge.net/DTD/sodipodi-0.dtd"
   xmlns:inkscape="http://www.inkscape.org/namespaces/inkscape"
   id="svg2985"
   version="1.1"
   inkscape:version="0.48.5 r10040"
   width="294"
   height="325"
   sodipodi:docname="perl_camel_1.png">
  <metadata
     id="metadata2991">
    <rdf:RDF>
      <cc:Work
         rdf:about="">
        <dc:format>image/svg+xml</dc:format>
        <dc:type
           rdf:resource="http://purl.org/dc/dcmitype/StillImage" />
        <dc:title></dc:title>
      </cc:Work>
    </rdf:RDF>
  </metadata>
  <defs
     id="defs2989" />
  <sodipodi:namedview
     pagecolor="#ffffff"
     bordercolor="#666666"
     borderopacity="1"
     objecttolerance="10"
     gridtolerance="10"
     guidetolerance="10"
     inkscape:pageopacity="0"
     inkscape:pageshadow="2"
     inkscape:window-width="1600"
     inkscape:window-height="837"
     id="namedview2987"
     showgrid="false"
     inkscape:zoom="1.9969231"
     inkscape:cx="84.403698"
     inkscape:cy="162.5"
     inkscape:window-x="-4"
     inkscape:window-y="-4"
     inkscape:window-maximized="1"
     inkscape:current-layer="svg2985" />
  <path
     style="fill:#000000"
     d="m 193.75924,323.02872 c -10.12001,-1.02836 -12.32449,-2.50159 -13.03567,-8.7116 -0.30341,-2.64942 -0.15199,-4.96324 0.33649,-5.14182 0.48848,-0.17859 0.1123,-1.50872 -0.83595,-2.95584 -1.33761,-2.04131 -1.76082,-5.10696 -1.88788,-13.6753 -0.0901,-6.07429 -0.65257,-12.31095 -1.25,-13.85926 C 176.4888,277.1366 176,273.40964 176,270.40278 c 0,-3.00686 -0.7037,-7.14006 -1.56378,-9.1849 -4.17812,-9.93346 -5.62317,-15.75164 -4.89731,-19.71788 1.19303,-6.51893 0.59143,-15.84769 -1.10487,-17.13261 -1.095,-0.82945 -1.32762,-2.18068 -0.86908,-5.04826 0.46859,-2.93042 0.22468,-4.24883 -0.96941,-5.23983 C 165.718,213.35099 165,211.96531 165,211 c 0,-0.96531 -0.6611,-2.30377 -1.4691,-2.97436 -1.10519,-0.91723 -1.53869,-4.10585 -1.75,-12.87244 L 161.5,183.5 l -6.25,-0.29772 c -5.00113,-0.23823 -6.25,-2.4e-4 -6.25,1.19099 0,0.81878 0.46223,1.77437 1.02717,2.12352 0.59446,0.3674 0.96838,4.31826 0.88762,9.37858 -0.11321,7.09371 0.25638,9.51984 1.95854,12.85634 1.15395,2.26193 2.57611,4.40803 3.16036,4.76911 0.66504,0.41102 0.80954,2.34179 0.38643,5.16331 -0.37171,2.47873 -0.7308,7.35624 -0.79798,10.83891 -0.14281,7.40358 -1.74127,10.12793 -9.08085,15.47696 -8.88218,6.47327 -19.98274,16.20627 -22.70467,19.90752 -2.65497,3.6102 -2.67504,3.75052 -1.18419,8.27904 1.92003,5.83219 6.08622,10.11895 11.37402,11.70322 3.22325,0.96571 4.44047,1.98348 5.55105,4.64146 0.78238,1.87249 1.4225,4.50558 1.4225,5.85132 0,2.31113 -0.402,2.48275 -7.25,3.09508 -8.38739,0.74998 -21.98559,-1.47588 -24.84934,-4.06754 -1.12279,-1.01611 -1.91301,-3.37492 -2.10034,-6.26955 L 106.5,283.5 l -1.36862,4 c -0.75274,2.2 -2.77774,5.50383 -4.5,7.34185 -2.923986,3.12051 -3.452988,3.30494 -7.987256,2.78457 -2.670732,-0.3065 -5.483232,-1.07793 -6.25,-1.71429 -1.662479,-1.37973 -1.936784,-14.53319 -0.41382,-19.84346 1.032397,-3.59975 5.586554,-9.06867 7.5518,-9.06867 0.636856,0 1.908986,-0.82992 2.826954,-1.84426 1.537166,-1.69855 1.543887,-2.14378 0.08507,-5.63522 -2.257839,-5.40377 -14.791038,-25.58948 -19.249073,-31.00216 -2.349842,-2.85304 -2.418217,-3.32749 -1.585259,-11 0.478777,-4.4101 0.843081,-13.41836 0.809564,-20.01836 -0.0546,-10.75097 -0.353818,-12.7286 -2.874748,-19 -1.547594,-3.85 -3.315739,-7.6286 -3.92921,-8.39689 -0.613471,-0.76829 -2.061083,-3.91829 -3.216916,-7 L 64.296973,157.5 l -0.702606,6 C 62.806678,170.22657 60.201544,180.23693 59.040101,181 57.600144,181.94605 55,187.90414 55,190.25767 c 0,3.4119 -6.622078,16.05838 -8.837851,16.87805 -2.185659,0.80853 -3.225922,6.4859 -3.639722,19.86428 -0.1446,4.675 -0.82813,9.85 -1.518954,11.5 -1.98714,4.74619 -2.25493,25.20473 -0.413841,31.61647 0.850217,2.96094 2.174913,8.93102 2.943771,13.26685 0.768857,4.33582 2.019948,8.61082 2.780203,9.5 0.760255,0.88917 1.976799,3.81708 2.703432,6.50645 1.212602,4.48802 1.168311,5.00153 -0.539073,6.25 C 47.454842,306.3879 44.768749,307 42.50887,307 c -2.259878,0 -4.600761,0.49189 -5.201962,1.09309 -1.698104,1.69811 -11.771007,-0.77128 -15.316907,-3.75496 -3.323937,-2.79691 -3.886385,-6.56891 -1.458198,-9.77926 C 21.353971,293.47187 22,290.48424 22,287.76903 c 0,-2.85736 0.812393,-6.44113 1.978086,-8.72607 4.322936,-8.47366 5.13193,-28.21925 1.499812,-36.60683 -1.123554,-2.5946 -1.739408,-6.83314 -1.806951,-12.43613 -0.08702,-7.21869 0.223222,-8.95223 2.058092,-11.5 1.960714,-2.72251 2.060459,-3.48789 1.078362,-8.27471 -1.083486,-5.28101 -0.569248,-10.73595 2.377991,-25.22529 1.906816,-9.37437 1.552024,-34.2491 -0.624049,-43.75252 -1.943992,-8.48985 -2.985448,-9.9087 -2.753992,-3.75195 C 25.879811,139.42299 25.5028,141 24.969549,141 24.436297,141 24,143.18086 24,145.84636 c 0,2.6655 -0.694167,6.23785 -1.542593,7.93856 -2.238932,4.48805 -1.009646,12.24517 2.675342,16.88212 3.256925,4.09831 3.676852,8.25664 1.295077,12.82451 -0.857919,1.64535 -1.552694,4.79535 -1.543944,7 0.03757,9.46739 -2.545212,12.53787 -5.264389,6.25845 -0.774041,-1.7875 -2.58008,-4.79993 -4.01342,-6.69428 C 14.172733,188.16137 13,185.94976 13,185.14103 c 0,-0.80872 -1.8,-4.7501 -4,-8.75862 -2.2,-4.00851 -4,-8.14026 -4,-9.18167 0,-1.0414 -0.7412608,-3.37936 -1.6472461,-5.19545 -1.4024751,-2.81133 -1.459377,-3.82152 -0.3829352,-6.79837 1.0962973,-3.03176 1.04942,-3.61665 -0.3527538,-4.40135 -2.10708397,-1.17918 -2.08325961,-6.17406 0.037839,-7.93313 2.7468534,-2.27802 4.6524604,-7.79716 3.2680826,-9.46524 C 4.343412,131.50393 5.4348929,125.11215 8.1610551,120.30094 9.3455954,118.21042 12.884013,113.8 16.024206,110.5 c 3.140193,-3.3 7.50881,-8.48631 9.708038,-11.525127 C 29.67033,93.533359 38,77.032226 38,74.672367 38,73.092176 43.171007,65.781075 49.753972,58.053849 55.195488,51.666478 65,33.336177 65,29.550206 65,22.939287 78.344153,6 83.551995,6 85.003676,6 87.610847,5.2607445 89.345708,4.3572099 95.21673,1.2995172 95.969778,1 97.786431,1 c 0.997463,0 2.278609,0.4650405 2.846989,1.0334232 0.56839,0.5683828 4.93394,1.0478992 9.70123,1.065592 7.89628,0.029305 8.94851,0.2683684 11.82144,2.6857806 C 125.88403,8.9216514 134.08387,12 138.71161,12 141.53735,12 142,12.345735 142,14.457368 c 0,1.646152 1.19896,3.37926 3.63194,5.25 8.98789,6.910868 9.91633,8.04724 11.81236,14.457728 1.03051,3.484197 2.89762,7.684904 4.14913,9.334904 5.22478,6.888423 13.03294,15.359869 14.75043,16.003434 3.33008,1.247829 10.53613,6.53182 12.67035,9.290812 6.14801,7.94777 7.82787,10.410297 8.95054,13.120649 1.21313,2.928758 1.26695,2.947157 3.24097,1.108076 1.89336,-1.763939 1.96624,-2.637778 1.28332,-15.388409 -0.67774,-12.653939 -0.5907,-13.733997 1.36118,-16.892212 1.14686,-1.855666 2.99974,-4.201575 4.11749,-5.213131 1.20669,-1.092033 2.03381,-3.096524 2.03603,-4.934207 0.002,-1.702256 0.87437,-4.522866 1.93848,-6.268021 2.05306,-3.367051 11.32376,-10.717218 15.53883,-12.319787 C 228.86647,21.480468 230,20.588364 230,20.024751 230,19.461138 230.98055,19 232.179,19 c 1.19845,0 3.69155,-0.546944 5.54022,-1.215431 2.63798,-0.953908 3.77998,-0.953908 5.30743,0 C 244.09707,18.453056 245.60582,19 246.37944,19 c 0.77362,0 1.6656,0.675 1.98219,1.5 0.31658,0.825 1.18868,1.5 1.93801,1.5 1.38314,0 2.86352,2.302027 4.64435,7.222071 1.11037,3.067689 1.03682,3.045032 16.99141,5.234343 12.75633,1.750441 13.58402,2.212351 18.0963,10.098984 3.11741,5.448664 3.91313,11.810653 1.93866,15.499993 C 290.33818,63.105136 285.56308,65 279.50982,65 c -3.62757,0 -6.9741,0.70637 -9.53419,2.012433 l -3.94469,2.012433 3.12305,6.737567 c 1.71768,3.705662 3.50948,7.516974 3.98177,8.469582 1.85848,3.748493 4.86326,12.357227 4.86374,13.934652 2.7e-4,0.916666 -0.41233,1.816666 -0.91689,2.000003 -1.20813,0.43897 -1.60848,8.43386 -0.63637,12.70825 0.50152,2.20521 0.37596,3.61693 -0.36227,4.07318 -0.62139,0.38405 -1.31647,4.11317 -1.54461,8.28694 -0.56149,10.27224 -1.90486,14.68846 -5.79989,19.06659 -3.09344,3.47712 -5.71559,5.08677 -4.14398,2.54386 0.44289,-0.7166 0.27423,-0.88301 -0.44465,-0.43871 -0.65696,0.40602 -0.89999,1.74451 -0.56157,3.09288 0.85734,3.41593 -2.47073,8.75101 -5.14221,8.24323 C 255.51385,157.18537 254,159.30102 254,163.95779 254,166.81062 253.576,168 252.55902,168 c -0.79254,0 -1.69655,-0.41351 -2.00891,-0.91891 -0.85241,-1.37924 -6.02227,1.54548 -7.34247,4.15383 -0.63055,1.24579 -1.27273,3.84008 -1.42705,5.76508 -0.22154,2.76347 -0.75407,3.56725 -2.53059,3.81955 -1.65701,0.23533 -2.25,-0.18196 -2.25,-1.58333 0,-3.08698 -1.13409,-3.33546 -3.20534,-0.70231 -2.23275,2.83849 -6.25171,3.2587 -7.62897,0.79767 -0.82797,-1.47949 -1.36896,-1.30963 -4.77754,1.5 -4.32885,3.56821 -5.58409,3.84218 -7.42743,1.62109 -0.9208,-1.1095 -1.48603,-1.22074 -1.99753,-0.39311 -1.13008,1.82851 -6.61693,0.11785 -8.41271,-2.62287 -1.61942,-2.47153 -4.92432,-3.25885 -6.04795,-1.44078 -0.33853,0.54776 -0.1238,6.27982 0.47719,12.73793 0.75174,8.07807 0.76937,11.8498 0.0565,12.08742 C 197.4663,203.01123 197,205.08265 197,207.4244 c 0,2.34176 -0.67013,6.46676 -1.48918,9.16667 -0.81904,2.69991 -1.49404,7.44133 -1.5,10.53649 -0.007,3.64998 -0.51358,6.04481 -1.44152,6.81493 -0.94567,0.78483 -1.62024,4.13178 -1.98978,9.87244 -0.30749,4.77679 -0.82334,12.67893 -1.14632,17.56032 -0.67309,10.17261 1.0712,19.22733 5.61055,29.12475 1.51351,3.3 3.64276,8.07021 4.73167,10.60047 1.78303,4.14317 2.44347,4.71722 6.64412,5.77495 2.70077,0.68006 6.20909,2.5902 8.33394,4.53748 3.35712,3.07656 3.56937,3.5831 2.49212,5.9474 -1.30859,2.87205 -6.86492,5.65852 -12.2456,6.1411 -1.925,0.17265 -6.98334,-0.0401 -11.24076,-0.47268 z m 14.94371,-3.22208 c 1.53838,-0.65635 3.59153,-1.85741 4.56257,-2.66903 1.6778,-1.40235 1.66034,-1.58763 -0.35135,-3.72897 -1.16427,-1.23931 -4.77072,-3.04825 -8.01434,-4.01987 -5.74359,-1.72047 -5.94912,-1.90459 -7.87631,-7.05546 -1.08836,-2.90888 -2.41708,-6.08638 -2.95273,-7.0611 -5.9112,-10.75662 -9.30243,-30.75065 -6.91545,-40.77221 0.65501,-2.75 1.22551,-8.43812 1.26779,-12.64027 0.0602,-5.98404 0.48225,-8.08924 1.94692,-9.71139 1.55685,-1.72426 1.75616,-2.98262 1.19004,-7.51366 -0.46292,-3.70516 -0.31105,-5.67056 0.47577,-6.15684 0.76201,-0.47095 0.9319,-2.20714 0.49868,-5.09607 C 192.04237,210.09975 192.20656,209 193.18873,209 c 0.8363,0 1.40296,-1.53944 1.56439,-4.25 0.76307,-12.81205 0.74445,-16.51812 -0.096,-19.1071 -1.4185,-4.36976 0.90241,-13.6429 3.41458,-13.6429 1.06055,0 1.92828,0.35134 1.92828,0.78076 0,0.42942 1.35,1.29033 3,1.91314 1.65,0.6228 3,1.7561 3,2.51844 0,0.99855 0.99098,1.27037 3.54461,0.97225 2.34632,-0.27392 4.15207,0.13593 5.34151,1.21235 1.66991,1.51125 1.97463,1.46146 4.31177,-0.70454 1.38318,-1.28189 2.72774,-2.96929 2.98791,-3.74979 0.39042,-1.17126 0.94431,-1.20436 3.17168,-0.1895 1.48426,0.67627 2.9487,1.88122 3.25433,2.67766 0.41273,1.07557 1.3325,0.56332 3.57552,-1.99135 C 233.84825,173.54774 235.83557,172 236.60359,172 237.37162,172 238,171.325 238,170.5 c 0,-0.83333 0.88889,-1.5 2,-1.5 1.11111,0 2,-0.66667 2,-1.5 0,-0.825 0.6199,-1.5 1.37756,-1.5 0.75765,0 1.96778,-0.71119 2.68918,-1.58041 0.76218,-0.91838 2.27515,-1.39623 3.61176,-1.14072 2.15761,0.41246 2.26189,0.20057 1.68301,-3.41958 C 250.94602,157.26098 251.11989,156 251.89363,156 c 0.63209,0 1.66183,-1.125 2.28832,-2.5 1.41763,-3.11136 3.77879,-3.26141 3.93405,-0.25 0.0873,1.69317 0.22918,1.81691 0.57333,0.5 0.25152,-0.9625 0.87432,-1.75 1.38399,-1.75 0.50968,0 0.92668,-1.7449 0.92668,-3.87756 0,-3.93623 2.03238,-6.8385 3.9562,-5.64951 0.57409,0.35481 1.0438,-0.0564 1.0438,-0.91391 0,-0.85746 0.56675,-1.55902 1.25945,-1.55902 2.64282,0 3.87217,-4.29582 4.24025,-14.81714 0.21878,-6.25345 0.80763,-10.7853 1.42828,-10.99219 0.73806,-0.24602 0.74066,-0.94131 0.009,-2.30911 -0.57607,-1.07641 -0.74368,-2.91406 -0.37246,-4.08367 1.50189,-4.73204 0.74519,-16.468489 -1.31714,-20.428799 C 268.10334,81.332247 263,69.464375 263,68.190567 c 0,-2.243087 7.71918,-5.189111 13.71016,-5.232483 6.77922,-0.04908 11.71907,-2.304039 13.78943,-6.294647 1.28199,-2.471053 1.21984,-3.140141 -0.61955,-6.669079 -1.12448,-2.157356 -3.695,-5.745308 -5.71227,-7.973225 C 280.51764,37.989857 280.44469,37.962959 269,36.428803 253.01967,34.286645 253.0574,34.298164 251.94399,31.222071 249.81766,25.34749 248.91427,24.293732 246.41403,24.771683 245.02779,25.03668 244,24.757764 244,24.116577 244,23.50246 243.325,23 242.5,23 c -0.825,0 -1.5,-0.675 -1.5,-1.5 0,-1.946592 -1.4111,-1.914508 -3.0577,0.06952 -0.71642,0.863237 -2.12152,1.355366 -3.12244,1.093619 C 233.81894,22.401396 233,22.59511 233,23.09362 233,23.592129 231.97559,24 230.72353,24 c -2.81569,0 -15.44707,9.913227 -17.38091,13.640703 -0.81704,1.574847 -1.16346,3.898533 -0.81662,5.47767 0.45616,2.076869 0.13571,2.992307 -1.3202,3.771486 -5.2726,2.821809 -7.50289,11.148769 -6.18982,23.110141 0.45283,4.125 0.47212,9.40034 0.0429,11.722977 -0.49513,2.679172 -0.42489,4.003234 0.19215,3.621885 1.26084,-0.779241 2.71415,1.545999 2.73367,4.373753 0.0108,1.558162 0.46184,2.047265 1.51531,1.643011 0.86993,-0.333825 1.52265,-0.0056 1.55392,0.781385 0.0297,0.746344 0.42984,4.946215 0.8893,9.333049 C 212.97843,111.36003 212.15244,114 208.02475,114 205.45479,114 205,113.61928 205,111.46788 c 0,-1.39266 -0.675,-4.14762 -1.5,-6.12212 -0.825,-1.97451 -1.5,-4.94186 -1.5,-6.594114 0,-3.100851 -8.80288,-20.513231 -11.50371,-22.754727 C 189.67333,75.313924 189,74.181827 189,73.481147 c 0,-1.46437 -6.18774,-7.14312 -9.36109,-8.591074 -1.1764,-0.536773 -3.04732,-1.519129 -4.1576,-2.183012 C 172.98905,61.216835 161,48.974897 161,47.920298 161,47.498532 159.93326,45.881424 158.62946,44.326725 157.32566,42.772026 155.9421,39.925 155.55489,38 154.49301,32.721024 152.08443,28 150.45308,28 149.65389,28 149,27.623699 149,27.163776 c 0,-0.459923 -2.23195,-2.597423 -4.95989,-4.75 -3.28111,-2.589073 -4.97347,-4.681786 -5,-6.182828 -0.0327,-1.850589 -0.4572,-2.164369 -2.30172,-1.701423 -1.24389,0.312196 -4.05639,-0.212828 -6.25,-1.166721 -2.19362,-0.953892 -4.41344,-1.621568 -4.93295,-1.483723 -1.49604,0.396954 -5.85371,-2.1415794 -8.23951,-4.7998813 -1.84202,-2.0524085 -2.42917,-2.2301102 -3.74909,-1.1346681 -1.25811,1.0441337 -2.14974,1.0566621 -4.54653,0.063883 -1.63982,-0.679236 -4.16814,-0.9371438 -5.61849,-0.5731284 -1.81224,0.4548431 -3.22576,0.1290321 -4.519414,-1.0417076 C 97.775705,3.3920283 97,3.1659741 97,3.8450124 97,4.4802556 95.9301,5 94.622445,5 93.314789,5 91.684689,5.675 91,6.5 90.315311,7.325 88.46404,8 86.886064,8 c -2.174862,0 -4.406609,1.5122285 -9.223751,6.25 -6.899968,6.78628 -9.158194,10.654648 -10.528847,18.036039 -0.488797,2.632322 -1.542528,5.557322 -2.341625,6.5 -0.799097,0.942679 -2.252305,3.88006 -3.229352,6.527515 C 59.750691,50.222894 55.321088,56.73011 49.52294,63 45.259741,67.610057 40,75.49532 40,77.276537 40,78.05544 39.370003,79.999361 38.600007,81.596362 37.83001,83.193363 35.950658,87.2 34.423668,90.5 c -2.913361,6.296107 -10.63274,16.57284 -16.900893,22.5 -6.014832,5.68762 -8.8877111,12.27877 -8.9606203,20.55806 -0.055375,6.28814 -0.3791165,7.43353 -2.9677807,10.5 L 2.688748,147.5 l 2.655626,0.31642 c 3.0025552,0.35776 3.248321,1.54435 1.2863261,6.21057 C 5.243765,157.32553 5.4998291,161 7.1166314,161 7.6024841,161 8,162.78437 8,164.96527 c 0,2.69514 0.9688299,5.49296 3.024634,8.73463 1.663548,2.62314 3.499499,6.53287 4.079891,8.68828 0.580393,2.15541 2.254744,5.4222 3.720781,7.25952 l 2.665522,3.34059 1.184129,-6.24414 c 0.65127,-3.43428 0.942678,-7.08783 0.647573,-8.119 -0.295105,-1.03116 -0.0099,-2.20031 0.633707,-2.5981 0.811575,-0.50158 0.311181,-1.74422 -1.6326,-4.05428 -2.388065,-2.83805 -2.856683,-4.39684 -3.166549,-10.53307 -0.267832,-5.30384 0.08386,-8.1452 1.334348,-10.78041 1.213467,-2.55719 1.503232,-4.73137 1.015402,-7.61882 C 21.056937,140.37754 21.195106,139 21.912102,139 22.510446,139 23,137.90429 23,136.5651 c 0,-4.5913 1.807986,-7.73151 4.251612,-7.38444 1.682707,0.239 2.317256,1.07412 2.522114,3.31934 0.150549,1.65 0.97611,5.99501 1.834579,9.65557 1.825663,7.78474 2.542535,36.24143 0.991153,39.34443 -0.549959,1.1 -1.335952,4.25 -1.746651,7 -0.410699,2.75 -1.149253,7.1375 -1.641231,9.75 -0.534939,2.84063 -0.522869,6.65937 0.03003,9.5 1.46047,7.5035 1.215266,10.13478 -1.182261,12.68683 -1.987815,2.11594 -2.175941,3.14844 -1.77018,9.71536 0.249706,4.04129 1.186797,9.80838 2.082424,12.81574 3.214268,10.79295 1.817464,30.97027 -2.755898,39.80993 -1.163719,2.2493 -1.491207,4.36876 -1.043656,6.75441 0.453647,2.41815 0.16141,4.2256 -0.959913,5.93696 C 22.725453,296.82245 22,298.55072 22,299.30983 c 0,2.37825 3.463483,4.65035 8.532265,5.5973 4.054051,0.75737 5.080193,0.63754 6.064206,-0.70817 0.971495,-1.3286 1.63549,-1.4143 3.69333,-0.47669 1.379893,0.62872 3.477101,0.88994 4.660462,0.58049 1.821234,-0.47627 2.050171,-1.04168 1.491145,-3.68271 -0.363231,-1.71603 -1.778518,-4.60808 -3.145082,-6.42679 -1.596033,-2.1241 -2.295923,-4.09115 -1.956936,-5.5 0.553371,-2.29985 -0.202733,-6.54947 -2.782916,-15.64118 -2.254749,-7.94498 -2.327869,-27.88675 -0.129973,-35.44725 1.009279,-3.47179 1.84907,-10.45231 2.044939,-16.99795 C 40.813145,209.18762 41.98759,204 44.231138,204 c 0.704351,0 1.915723,-1.4625 2.691937,-3.25 0.776214,-1.7875 2.461064,-4.81696 3.744111,-6.73213 C 51.950234,192.10269 53,189.26692 53,187.71615 c 0,-1.55077 1.522464,-5.83381 3.383253,-9.51787 2.073525,-4.10524 3.862993,-9.65557 4.622505,-14.33748 0.681589,-4.20156 1.588709,-8.20463 2.015823,-8.89572 1.405179,-2.27363 3.463913,-0.29918 5.380881,5.16057 1.037839,2.95589 2.496856,6.08478 3.242259,6.95309 C 72.390125,167.94705 73,168.98424 73,169.3836 c 0,0.39937 0.911934,2.72795 2.02652,5.17462 4.357758,9.56587 5.363594,24.38362 2.798239,41.22304 -1.108399,7.27573 -1.106997,7.28409 1.844229,11 6.158837,7.75464 17.136568,25.64941 19.678453,32.0778 1.461039,3.69496 1.528689,4.7995 0.443989,7.25 C 98.975219,267.95301 97.762538,269 96.44298,269 c -5.08352,0 -9.426698,8.64336 -9.437403,18.78138 -0.0044,4.15326 0.36823,5.40086 1.744423,5.84068 0.9625,0.30761 2.767958,1.04745 4.012129,1.64409 1.923774,0.92254 2.705037,0.66046 5.223269,-1.75216 1.628627,-1.56032 3.694992,-5.04638 4.591922,-7.74678 0.89693,-2.70041 2.28058,-5.15919 3.07478,-5.46395 2.33883,-0.89749 4.45179,2.75959 3.97815,6.88532 -0.57618,5.01886 1.1766,6.33293 10.86975,8.14913 9.54016,1.78753 17.5,1.22113 17.5,-1.24526 0,-3.04334 -2.96621,-5.92043 -7.75054,-7.51768 C 125.48076,284.98274 121,280.25863 121,276.82298 c 0,-0.85429 -0.9,-2.69743 -2,-4.09585 -1.1,-1.39842 -2,-2.85685 -2,-3.24095 0,-1.26232 6.25249,-8.90793 10.61996,-12.98618 4.53805,-4.23755 11.06888,-9.45285 18.21687,-14.54738 5.22216,-3.72196 8.86482,-10.77305 7.18601,-13.90995 -0.69701,-1.30236 -0.76141,-3.88671 -0.18799,-7.54337 0.47974,-3.05926 0.5002,-5.79223 0.0455,-6.07327 -0.83306,-0.51486 -2.63021,-4.2544 -4.8468,-10.0853 -0.92515,-2.43365 -0.92993,-3.66574 -0.0209,-5.36437 1.24584,-2.32787 0.55247,-10.50906 -0.97043,-11.45027 C 146.579,187.23981 146.2,185.48588 146.2,183.62848 l 0,-3.3771 8.65,0.12746 8.65,0.12747 0.7838,6.49684 c 0.43109,3.57327 0.52064,9.08967 0.199,12.25867 -0.47222,4.65268 -0.28622,5.87638 0.96621,6.35699 0.85304,0.32734 1.55099,1.24024 1.55099,2.02867 0,0.78843 0.96229,2.73507 2.13843,4.32588 1.57079,2.12461 1.97559,3.70653 1.525,5.95951 -0.47833,2.39163 -0.26407,3.06713 0.97286,3.06713 1.27039,0 1.45593,0.6949 0.93168,3.48939 -0.36004,1.91916 -0.15851,5.18166 0.44784,7.25 0.85682,2.92272 0.79225,4.64055 -0.28977,7.70996 -1.24037,3.51857 -1.18916,4.60933 0.4695,10 1.02396,3.32786 2.5717,7.56949 3.43943,9.42585 0.86773,1.85636 1.73904,6.24959 1.93624,9.76273 0.19721,3.51314 0.79559,8.0693 1.32973,10.1248 0.53414,2.0555 1.00065,7.8648 1.03668,12.90956 0.069,9.65745 0.47904,11.79133 2.78309,14.48237 1.17653,1.37415 1.2065,2.35624 0.1768,5.79309 -1.45959,4.87168 -0.53178,6.30612 5.10249,7.88875 4.97346,1.39701 16.39917,1.37969 19.70295,-0.0299 z M 107.246,254.75 c -0.54938,-0.6875 -2.96698,-5.2815 -5.37244,-10.20888 -4.266425,-8.73943 -4.381827,-9.23689 -4.711039,-20.30799 -0.22344,-7.51409 0.173254,-13.77939 1.173951,-18.54112 1.590641,-7.56892 2.543998,-14.56195 3.229938,-23.69201 0.65705,-8.74555 1.36984,-11 3.47786,-11 2.52539,0 4.22182,3.34304 5.07449,10 1.55133,12.11146 2.02338,13.77559 3.77742,13.3169 1.31473,-0.34381 1.90809,0.71832 2.81396,5.03709 0.63136,3.01002 0.90238,6.41174 0.60226,7.55939 -0.38704,1.48003 -0.0757,2.08662 1.07097,2.08662 1.77162,0 2.21429,2.51259 0.61663,3.5 -1.36115,0.84124 -1.26553,4.21786 0.14411,5.08907 0.62926,0.3889 2.42926,0.67056 4,0.6259 2.38093,-0.0677 2.85589,0.32345 2.85589,2.35191 0,1.64969 0.56348,2.43389 1.75,2.4355 1.09847,0.001 2.78769,1.98845 4.53723,5.33696 3.32255,6.35915 2.93272,8.13198 -3.17116,14.42162 C 126.85223,245.09369 125,247.62502 125,248.38613 125,250.49827 120.47659,253 116.65763,253 c -1.87701,0 -3.97294,0.675 -4.65763,1.5 -1.51632,1.82705 -3.41402,1.92684 -4.754,0.25 z m 8.254,-4.28718 c 4.02708,-0.72099 7.5,-2.92704 7.5,-4.7641 0,-0.54522 2.02627,-3.15755 4.50282,-5.80518 l 4.50281,-4.81388 -1.66102,-3.48319 c -1.47332,-3.08959 -1.99235,-3.41692 -4.59319,-2.89675 -2.82708,0.56541 -2.91997,0.46484 -2.59179,-2.80593 0.30167,-3.00664 -7.4e-4,-3.50615 -2.65963,-4.39308 -5.21062,-1.73811 -5.77011,-2.45019 -5.20946,-6.63016 0.2855,-2.12859 0.11193,-4.12181 -0.38572,-4.42938 C 114.40717,210.13361 114,207.65852 114,204.94098 114,200.27135 113.85548,200 111.36833,200 c -2.47337,0 -2.60078,-0.23028 -2.11817,-3.82841 0.29709,-2.21501 -0.0839,-5.2491 -0.90396,-7.19954 -0.7796,-1.85413 -1.16039,-4.54155 -0.8462,-5.97205 0.31419,-1.4305 -0.0793,-4.14802 -0.87432,-6.03893 l -1.44558,-3.43801 -0.54179,3.48847 c -0.29798,1.91866 -0.80479,7.53847 -1.12624,12.48847 -0.32145,4.95 -1.51091,12.76687 -2.64325,17.37082 -1.501437,6.10466 -1.965401,10.70692 -1.713808,17 0.317299,7.93658 0.739521,9.45067 5.260548,18.86422 3.31128,6.89467 5.26948,9.94277 6,9.33949 0.59644,-0.49256 2.88444,-1.21782 5.08444,-1.61171 z m 94.29606,-145.66315 c 0.2604,-4.874506 0.0495,-5.606786 -1.75,-6.077373 C 206.4018,98.292311 206,97.377192 206,94.062235 c 0,-3.011759 -0.47229,-4.302218 -1.75,-4.781649 -0.9625,-0.361154 -2.35121,-1.359531 -3.08602,-2.218615 -0.73481,-0.859084 -0.39731,0.06614 0.75,2.056063 1.14731,1.989919 2.08602,4.972463 2.08602,6.627876 0,1.655413 0.675,4.62534 1.5,6.59985 0.825,1.9745 1.5,4.76696 1.5,6.20545 0,1.64561 0.46352,2.46256 1.25,2.20312 0.74825,-0.24683 1.36884,-2.63704 1.54606,-5.95466 z m -0.19189,-11.528837 c -0.3323,-0.332291 -0.56864,0.258334 -0.52522,1.3125 0.048,1.164943 0.28494,1.4019 0.60416,0.604167 0.28887,-0.721875 0.25335,-1.584375 -0.0789,-1.916667 z"
     id="path3015"
     inkscape:connector-curvature="0" />
  <path
     style="fill:#000000;fill-opacity:1;stroke:#000000;stroke-width:0.50077039"
     d="M 97.1875,2.34375 C 92.428925,3.6203638 88.228803,6.1227475 83.5,7.5 74.036642,13.42031 67.046584,23.043129 64.687668,34.001623 60.379151,46.302698 53.006331,57.108895 44.34375,66.78125 37.249473,75.606161 35.613959,87.457778 28.78125,96.5625 22.212036,108.22734 7.968819,115.67454 7.1875,130.15625 c -0.013556,6.46256 -1.1907242,12.89226 -6.53227881,17.22235 -2.32441799,2.80226 6.96195851,0.24477 4.93852881,4.0589 -1.3584717,3.61369 -2.7010462,8.00297 0.15625,11.1875 1.3749982,9.77551 7.066553,18.19972 11.09375,27 0.925806,2.6001 5.073787,6.57491 6.53125,2.1875 1.328976,-5.74998 1.590174,-11.82275 2.21875,-17.5 -2.607933,-4.24458 -5.41301,-8.56606 -4.4375,-13.96875 -1.2811,-6.85609 3.600883,-12.71899 1.96875,-19.5625 2.020479,-2.86309 0.966474,-7.82725 3.875,-9.84375 2.307462,2.06612 1.39936,7.22599 2.626741,10.17494 1.84,13.59071 2.738391,27.80293 0.873259,41.41881 -2.933907,10.63177 -4.013878,21.74914 -2.21875,32.625 -0.281345,4.10757 -4.780578,6.77652 -3.59375,11.3125 -0.165739,12.5071 5.059686,24.40041 3.3125,37 0.45311,8.45143 -3.819993,15.95013 -5.125,24 0.803447,4.4003 -1.341287,8.04576 -2.5,12.03125 1.402937,6.00811 9.369674,7.42063 14.65625,7.46875 2.199591,-0.68864 3.563571,-2.91306 6.21875,-1.28125 3.395884,1.50558 8.323275,-0.71492 6.9375,-4.90625 -1.472281,-5.36638 -6.119579,-9.61491 -5.28125,-15.59375 -3.520393,-15.77072 -6.026102,-32.2485 -2.59375,-48.3125 2.458688,-10.18433 0.658806,-21.47935 4.25,-31.1875 4.932891,-3.63883 7.052355,-10.22756 9.59375,-15.65625 3.067409,-10.77523 8.529965,-20.8719 9.90625,-32.0625 0.47515,-4.14877 2.326448,2.41027 3.03125,3.46875 5.731593,11.19833 11.052733,23.2813 10.15625,36.34375 0.704954,8.69212 -2.044163,17.19435 -1.34375,25.75 7.539898,12.87539 17.785886,24.50521 22.59375,38.84375 1.06515,5.49259 -5.958022,4.91978 -8.1875,8.46875 -4.704506,6.35927 -5.793625,15.24916 -4.0625,22.8125 3.59233,3.03638 10.236309,5.80157 13.25,0.46875 3.44008,-3.08615 4.23375,-9.07985 7.15625,-11.9375 2.58547,3.72957 -0.50575,10.68548 5.21875,12.5625 8.13901,2.71273 17.38977,4.31195 25.8125,2.21875 4.74681,-3.62861 -0.82713,-9.33714 -4.59375,-10.875 -5.58931,-2.10419 -10.14441,-6.28637 -11.5,-12.1875 -1.0392,-2.45212 -4.33201,-4.94826 -0.875,-7.15625 8.33365,-11.29742 20.8399,-18.13393 30.53125,-27.875 3.64087,-3.88965 4.50353,-9.21487 3.09375,-14.25 0.40215,-5.03379 1.57202,-10.45531 -2.03125,-14.625 -1.64583,-4.0173 -4.3561,-8.1567 -2.28125,-12.34375 1.20001,-5.55678 -2.00049,-10.41617 -1.9375,-15.8125 4.44,0.59708 10.25327,-0.39049 14.03125,1.1875 1.43882,7.47022 -0.73943,15.64247 1.375,22.9375 2.52158,2.5151 3.7952,6.19816 5.25,9.375 0.14389,2.49338 -0.59427,5.97747 2.0625,7.34375 -0.0117,6.83492 1.57696,13.55366 -0.5625,20.09375 0.82106,9.89376 6.91279,18.69454 6.90804,28.76534 2.26966,10.40738 1.13969,21.2228 3.15446,31.60966 1.32146,3.10197 3.43483,5.91101 1.75419,9.51962 -1.96898,5.01161 2.98898,8.65052 7.49581,8.91788 9.46915,1.79314 20.54748,1.95596 27.71799,-5.56189 -3.26425,-6.20385 -11.47392,-7.12998 -16.84299,-10.68811 -8.97163,-17.04303 -14.90443,-36.51743 -10.90243,-55.83898 0.8409,-6.60285 0.0303,-13.73354 3.71493,-19.53602 0.46499,-4.6339 -0.50589,-9.49431 0.96875,-14.03125 -0.0572,-2.85946 -0.54317,-5.64601 1.5625,-7.75 2.12454,-9.61268 0.52523,-19.57844 0.65625,-29.28125 0.30567,-1.51948 0.98192,-6.74898 3.40625,-4.09375 3.8658,1.60382 5.96017,6.33241 10.78125,5.125 3.24391,-0.0219 6.58186,4.0601 9.21875,0.3125 2.10785,-1.39028 3.5908,-6.28439 6.1875,-2.875 3.04965,5.43896 6.86765,-0.64292 9.9375,-3.0625 2.5501,-1.17051 3.59126,-3.79643 6.34375,-4.6875 2.65665,-3.23759 6.8358,-5.42159 11.28125,-5.09375 -0.27321,-3.47832 -1.78211,-7.25428 1.625,-9.5 2.29712,-2.21357 2.43259,6.16732 5.9649,-1.99497 2.55964,-2.26676 0.46389,-7.50757 3.37885,-8.88003 2.63302,0.051 2.89779,-3.03586 5.28125,-3.625 5.08714,-7.82132 2.03117,-18.37833 5.09375,-26.875 -0.99941,-10.35586 1.59745,-21.573556 -4.0625,-31.0625 -1.72615,-4.760283 -5.37701,-9.885998 -5.71875,-14.71875 8.20892,-5.12213 21.19404,-0.7384 26.71875,-10.34375 3.23799,-6.739453 -3.99853,-12.775569 -7.5,-17.8125 -6.17029,-5.943512 -15.97018,-4.075771 -23.67344,-6.323358 -3.08088,-0.559462 -7.43007,-0.348284 -7.79531,-4.457892 -0.96297,-3.519565 -3.73373,-6.549888 -7.59375,-5.875 -2.22727,-1.474442 -3.73,-3.21287 -4.125,-6.15625 -2.49543,2.944697 -5.82243,3.774608 -9.15625,4.84375 -7.70301,2.589754 -14.78906,8.422596 -19.90625,14.90625 -2.57001,3.558326 0.46099,8.905143 -4.34375,11.125 -7.63155,8.278034 -3.46488,20.76635 -4.46875,30.875 -0.5404,3.51694 0.0147,7.043815 2.625,9.4375 0.19346,2.231286 1.0388,4.777344 3.375,5.21875 0.22225,5.986687 2.46155,12.75787 0.34375,18.4375 -1.67024,1.26429 -3.83313,0.41708 -3.1875,-1.9375 -2.50898,-13.264572 -7.96324,-25.895614 -15.8125,-36.84375 -5.27026,-8.542047 -16.2676,-11.190216 -22.1875,-19.25 -6.64173,-6.02386 -10.89484,-14.176227 -13.53125,-22.625 -1.46265,-4.732801 -6.63378,-5.577831 -9.25424,-9.503358 -2.86447,-2.141143 -4.85019,-4.768821 -5.93326,-8.027892 -3.7592,-1.691378 -8.23476,-0.94324 -12.0625,-2.96875 -5.01659,-0.329689 -8.75547,-4.2165664 -12.3125,-7.40625 -4.0284,3.5068843 -8.68227,-0.3887668 -13.25,0.40625 -1.86442,0.2125295 -3.004194,-1.7019782 -4.9375,-1.25 z m 7.9375,170.625 c 3.33579,2.21224 2.59208,8.04234 3.76061,11.61098 1.0919,3.7073 0.1269,10.58007 5.11439,11.45152 2.28809,4.33569 0.14221,10.06827 2.875,14.0625 2.84897,1.01726 -2.02242,4.23818 -0.0937,6.5625 0.48339,3.62319 5.44756,2.63983 7.3125,3.8125 -0.1217,3.03405 2.98037,3.82142 4.53125,5.34375 2.17095,3.60223 6.10405,8.76939 2,12.5625 -3.70204,3.38599 -5.63289,8.43549 -9.4375,11.53125 -3.95033,1.40458 -8.31589,1.94951 -11.9375,4.09375 -3.60549,-4.71938 -6.34814,-11.67221 -9,-17.4375 -1.807862,-10.14824 -1.148055,-20.88529 -0.2106,-31.08014 2.43899,-10.69946 2.36098,-22.03468 4.8981,-32.48236 l 0.125,-0.0312 0.0625,0 z"
     id="path3017"
     inkscape:connector-curvature="0" />
</svg>
