<?xml version="1.0" encoding="UTF-8"?>
<!-- Created with Inkscape (http://www.inkscape.org/) -->
<svg id="svg3946" width="1680" height="330.67" version="1.1" viewBox="0 0 1680 330.67" xmlns="http://www.w3.org/2000/svg" xmlns:cc="http://creativecommons.org/ns#" xmlns:dc="http://purl.org/dc/elements/1.1/" xmlns:rdf="http://www.w3.org/1999/02/22-rdf-syntax-ns#">
 <metadata id="metadata3952">
  <rdf:RDF>
   <cc:Work rdf:about="">
    <dc:format>image/svg+xml</dc:format>
    <dc:type rdf:resource="http://purl.org/dc/dcmitype/StillImage"/>
    <dc:title/>
   </cc:Work>
  </rdf:RDF>
 </metadata>
 <g id="g4032" transform="translate(.73234 -1.9006e-6)" stroke-width="1.3333">
  <path id="path4038" d="m0 165.33v-165.33h1680v330.67h-1680z" fill="#f9f9f9"/>
  <path id="path4036" d="m1181.7 316.06c-9.6379-5.8766-9.0282 1.0379-9.4652-107.33-0.2161-53.566-0.036-99.356 0.3991-101.75 1.1331-6.2416 7.8496-13.317 14.287-15.05 4.2872-1.1544 6.6915-1.0213 11.813 0.65379 6.0399 1.9755 6.8591 1.9456 13.496-0.49359 21.482-7.8955 47.42-5.6648 66.904 5.7538 6.3635 3.7293 17.128 14.967 20.403 21.299 6.6213 12.804 7.0919 16.582 7.0919 56.935 0 34.788-0.2503 39.128-2.7172 47.114-5.2902 17.128-21.906 33.515-39.524 38.982-8.5491 2.6526-34.746 3.4159-45.896 1.3374-5.7698-1.0756-6.188-0.9552-6.9818 2.0102-0.4644 1.7349-0.8525 11.484-0.8625 21.664-0.016 16.447-0.3296 19.013-2.8136 23.032-1.5375 2.4877-4.5077 5.4085-6.6005 6.4907-5.3499 2.7665-14.433 2.4688-19.532-0.64032zm67.474-90.824c8.0861-1.7342 12.664-5.1266 16.157-11.974 2.3984-4.7011 2.6295-7.9346 2.6295-36.786 0-28.908-0.2297-32.107-2.6668-37.141-4.2554-8.7905-11.209-12-26-12-9.7032 0-12.892 0.52419-16.662 2.7388-10.887 6.3954-12.654 14.608-11.803 54.858 0.4411 20.861 0.8384 24.382 3.2802 29.07 5.3434 10.257 19.088 14.661 35.065 11.234zm-424.23 46.648c-11.352-2.6746-20.857-9.9828-27.315-21.002-2.8075-4.7906-3.6134-8.1698-4.0832-17.121-0.54729-10.427-0.31053-11.71 3.6436-19.742 7.3087-14.846 19.663-22.586 36.109-22.624 16.458-0.0372 29.324 7.8139 37.043 22.605 4.804 9.2052 5.0496 24.842 0.54428 34.667-5.5556 12.115-16.1 20.459-29.32 23.201-8.019 1.6635-9.6185 1.6649-16.622 0.0149zm109.89-0.43704c-13.574-3.4054-25-14.6-29.022-28.434-5.5337-19.035 4.4665-40.437 22.686-48.551 7.8965-3.5166 22.331-4.1386 30.484-1.3136 8.8977 3.0828 17.678 11.233 22.371 20.767 4.0106 8.1467 4.2424 9.3904 3.6753 19.724-0.42805 7.801-1.4557 12.677-3.5111 16.66-8.6338 16.731-28.47 25.717-46.684 21.148zm-572.2-8.5425c-12.99-3.689-22.318-9.0078-30.966-17.656-15.924-15.924-19.092-29.488-18.022-77.169 0.56208-25.057 1.105-31.324 3.2518-37.54 9.6737-28.011 31.918-42.79 64.404-42.79 31.986 0 55.201 14.915 64.18 41.233 2.7166 7.9627 3.0815 11.597 3.1152 31.019 0.0352 20.33-0.18271 22.354-2.8698 26.667-5.7431 9.2167-6.3603 9.3333-49.376 9.3333-44.035 0-43.94-0.0207-42.705 9.1803 0.98509 7.3444 6.0865 13.809 13.953 17.683 5.3882 2.6532 8.2186 3.1067 18.37 2.9434 7.2133-0.11613 16.298-1.3013 22.776-2.9712 10.932-2.8184 14.817-2.6217 21.776 1.103 11.039 5.908 10.511 26.682-0.82653 32.516-15.377 7.9128-50.134 11.255-67.059 6.4488zm46.344-112.9c0.44689-8.6513-3.6423-16.035-11.011-19.882-4.1994-2.1925-7.743-2.7812-16.667-2.7686-14.439 0.0204-21.021 3.0752-25.193 11.694-2.7047 5.5873-3.7844 15.535-1.8915 17.428 0.50363 0.50364 12.954 0.75364 27.667 0.55556l26.751-0.36015zm136.32 112.82c-15.863-5.1288-26.554-13.096-34.9-26.009-9.0287-13.969-9.4538-16.582-10.322-63.449l-0.77772-41.971-11.394-1.362c-6.5363-0.78129-12.92-2.3622-14.972-3.7079-7.789-5.107-10.686-18.93-5.4399-25.956 5.2911-7.0868 9.1911-8.8928 20.841-9.651l10.965-0.71362 0.66667-21.572c0.72511-23.463 1.2944-25.294 9.8468-31.679 5.029-3.7547 15.277-3.7547 20.306 0 8.5241 6.3642 9.0907 8.1886 9.8318 31.662l0.68167 21.589 18 0.66858c19.217 0.71378 21.593 1.419 27.19 8.0703 4.4692 5.3114 4.8326 15.42 0.78946 21.962-4.3662 7.0646-10.288 8.9984-29.717 9.7046l-17.071 0.6205 0.40442 40.154c0.39562 39.28 0.47026 40.246 3.4283 44.393 7.5755 10.621 21.435 13.339 34.383 6.745 10.226-5.2082 14.879-5.6436 21.828-2.0426 7.651 3.9649 11.123 10.173 10.39 18.582-0.91104 10.458-10.082 18.833-26.099 23.832-10.91 3.4051-28.548 3.4642-38.86 0.13027zm122.26 1.0536c-34.061-8.0157-52.682-44.956-38.466-76.309 4.7854-10.554 10.062-16.538 20.536-23.289 13.198-8.5072 27.53-12.357 49.333-13.251 20.203-0.82878 21.997-1.5481 19.606-7.8608-1.9563-5.1629-6.1863-9.5063-12.607-12.945-4.1814-2.2393-7.6373-2.8548-16-2.8496-10.159 6e-3 -11.142 0.28245-20.667 5.8039-11.875 6.8843-17.724 8.0333-24.507 4.8143-9.3883-4.455-13.715-15.421-9.7902-24.813 3.6223-8.6695 21.245-20.082 36.964-23.938 4.0333-0.98939 12.733-1.7014 19.333-1.5822 28.159 0.50839 51.603 14.549 62.42 37.383l4.2466 8.9644 0.38789 56.35c0.34479 50.088 0.14379 56.865-1.8086 60.979-4.6682 9.8375-17.62 12.992-27.869 6.7885l-5.29-3.202-6.3542 3.2199c-3.4948 1.771-9.7904 4.1149-13.99 5.2088-8.2826 2.1574-27.349 2.4412-35.478 0.52819zm24.553-38.546c10.394-1.9398 23.444-8.6764 25.861-13.35 1.1153-2.1567 1.988-7.3647 1.988-11.864 0-10.585-1.5129-11.433-18.411-10.323-16.654 1.0939-27.338 4.1906-33.052 9.5794-3.8757 3.6553-4.5366 5.1675-4.5366 10.38 0 7.4435 3.5964 12.176 11.333 14.913 6.5159 2.3052 7.7587 2.3543 16.818 0.66355zm372.88 38.02c-16.51-4.1893-31.78-15.51-39.778-29.489-6.4924-11.348-7.8705-21.223-7.8879-56.525-0.01-17.233 0.5734-34.933 1.2931-39.333 3.825-23.386 23.013-42.859 48.009-48.723 10.182-2.3885 30.042-2.0318 39.541 0.71008 12.061 3.4817 22.624 9.7565 29.989 17.815 7.7316 8.4596 9.1367 11.461 9.1367 19.516 0 12.293-13.876 21.292-25.826 16.748-1.8332-0.69696-6.6449-4.2665-10.693-7.9323-8.7174-7.8945-15.17-10.022-27.707-9.1347-10.274 0.72721-16.37 3.7415-20.77 10.27-2.9212 4.3348-3.0046 5.3973-3.0046 38.314 0 31.3 0.2027 34.253 2.6846 39.118 4.7309 9.2732 19.068 13.728 34.124 10.602 6.1775-1.2825 8.957-2.8106 14.422-7.9295 8.4935-7.9556 11.23-9.3744 18.082-9.3744 11.201 0 18.674 7.5252 18.683 18.814 0.011 12.829-14.677 27.749-34.103 34.642-10.402 3.6911-35.115 4.7027-46.196 1.891zm306.7-0.58769c-15.846-5.0666-28.795-16.183-35.49-30.468-3.197-6.821-3.5734-9.169-3.5734-22.291 0-13.06 0.3848-15.487 3.5136-22.16 7.056-15.049 21.303-26.56 40.382-32.628 8.5396-2.716 14.777-3.6109 30.105-4.3191 18.766-0.86705 19.346-0.98192 19.762-3.9146 0.6328-4.4586-4.5521-11.883-10.878-15.576-11.499-6.7133-26.634-5.7578-40.411 2.5512-4.2937 2.5896-9.7176 5.0689-12.053 5.5095-6.0665 1.1444-12.978-1.5616-17.687-6.9243-3.3956-3.8674-4.0667-5.753-4.0667-11.428 0-8.7603 3.1324-13.819 12.592-20.333 23.514-16.194 54.384-17.859 80.038-4.3148 16.12 8.5104 28.14 24.784 31.423 42.543 0.8699 4.7059 1.2513 26.901 1.0072 58.617-0.3925 51.015-0.3945 51.046-3.4979 55.397-6.2705 8.7915-17.856 10.917-27.432 5.0323l-5.2044-3.1977-6.1289 3.1856c-14.296 7.4304-37.408 9.5117-52.399 4.7187zm36.862-40.068c4.4904-1.4943 10.394-4.5548 13.119-6.8012l4.955-4.0843v-10.544c0-10.231-0.1027-10.57-3.451-11.41-4.9953-1.2538-27.487 0.64366-35.366 2.9836-3.7073 1.101-8.94 4.0174-11.628 6.481-4.2437 3.8891-4.8876 5.2716-4.8876 10.494 0 4.8496 0.7652 6.8136 3.9499 10.138 6.9949 7.301 17.11 8.1342 33.309 2.7436zm-1346.1 35.615c-9.4059-6.2836-9.1928-4.4011-9.1951-81.22-0.0013-45.454 0.4807-70.191 1.4161-72.667 3.9481-10.45 14.52-15.389 25.354-11.845 6.0399 1.9755 6.859 1.9456 13.495-0.49359 14.724-5.4116 36.146-6.0529 51.426-1.5397 4.0591 1.1989 14.619 6.564 21.113 10.726 2.5094 1.6085 3.642 1.287 10.667-3.0281 10.013-6.1509 16.603-8.426 29.505-10.187 35.496-4.8457 66.457 13.043 75.789 43.789 1.471 4.8467 1.8721 17.756 1.8835 60.623 0.012 47.276-0.2683 55.061-2.1275 58.979-4.7263 9.96-19.216 13.238-28.207 6.3801-8.2096-6.2617-8.3177-7.0769-8.3177-62.694 0-47.564-0.14446-50.587-2.6668-55.797-4.2554-8.7905-11.209-12-26-12-13.271 0-18.587 2.0262-23.861 9.0945-2.7136 3.6372-2.828 5.5041-3.4727 56.667-0.60556 48.056-0.89357 53.362-3.1419 57.884-6.5105 13.096-25.619 13.933-33.786 1.4799-2.1872-3.3351-2.4663-8.5203-3.0724-57.064-0.75177-60.212-0.5081-58.801-11.213-64.936-4.6116-2.6432-7.3058-3.1257-17.453-3.1257-13.271 0-18.587 2.0262-23.861 9.0944-2.7154 3.6395-2.8276 5.4923-3.4727 57.333-0.64896 52.15-0.74389 53.696-3.5746 58.239-5.8882 9.4495-18.241 12.311-27.228 6.3068zm1445.9 0.28778c-2.3128-1.4816-5.3128-4.9215-6.6666-7.6442-2.2994-4.6236-2.4618-9.5697-2.4618-74.95 0-63.921 0.201-70.367 2.3132-74.228 4.9808-9.1041 15.255-12.857 24.772-9.0487 5.4129 2.1658 5.9181 2.1437 13.271-0.58192 14.825-5.4956 34.001-6.064 50.977-1.5112 13.905 3.7292 29.304 15.985 36.289 28.881 7.2612 13.405 7.7107 17.747 7.7084 74.436 0 46.896-0.2329 52.513-2.3333 56.693-6.8745 13.683-25.937 14.444-34.09 1.3599-2.8307-4.5427-2.9256-6.0894-3.5745-58.239-0.6451-51.841-0.7574-53.694-3.4727-57.333-5.2735-7.0682-10.59-9.0944-23.861-9.0944-10.148 0-12.842 0.48249-17.453 3.1257-10.705 6.1357-10.462 4.7247-11.213 64.936-0.6062 48.543-0.8854 53.729-3.0724 57.064-5.6674 8.6416-18.641 11.575-27.133 6.1356zm-682.67-97.26c-7.8038-1.6239-14.949-5.5639-20.922-11.538-7.9319-7.9319-10.575-14.19-11.26-26.661-0.5233-9.5305-0.18446-11.764 2.7608-18.197 4.096-8.9469 11.644-16.733 20.399-21.042 9.0263-4.4425 23.651-4.5028 33.231-0.13716 8.4377 3.8453 15.918 11.031 20.376 19.573 4.8425 9.2789 5.027 24.758 0.4176 35.039-7.2947 16.27-27.534 26.597-45.002 22.962zm108.88-0.74251c-30.374-8.1932-40.477-45.629-18.401-68.182 19.558-19.98 52.666-14.471 65.125 10.836 4.0106 8.1467 4.2424 9.3904 3.6753 19.724-0.41705 7.6008-1.4634 12.687-3.3661 16.362-8.835 17.067-28.92 26.145-47.033 21.259z" fill="#d9243a"/>
  <path id="path4034" d="m1181.7 316.06c-9.6379-5.8766-9.0282 1.0379-9.4652-107.33-0.2161-53.566-0.036-99.356 0.3991-101.75 1.1331-6.2416 7.8496-13.317 14.287-15.05 4.2872-1.1544 6.6915-1.0213 11.813 0.65379 6.0399 1.9755 6.8591 1.9456 13.496-0.49359 21.482-7.8955 47.42-5.6648 66.904 5.7538 6.3635 3.7293 17.128 14.967 20.403 21.299 6.6213 12.804 7.0919 16.582 7.0919 56.935 0 34.788-0.2503 39.128-2.7172 47.114-5.2902 17.128-21.906 33.515-39.524 38.982-8.5491 2.6526-34.746 3.4159-45.896 1.3374-5.7698-1.0756-6.188-0.9552-6.9818 2.0102-0.4644 1.7349-0.8525 11.484-0.8625 21.664-0.016 16.447-0.3296 19.013-2.8136 23.032-1.5375 2.4877-4.5077 5.4085-6.6005 6.4907-5.3499 2.7665-14.433 2.4688-19.532-0.64032zm67.474-90.824c8.0861-1.7342 12.664-5.1266 16.157-11.974 2.3984-4.7011 2.6295-7.9346 2.6295-36.786 0-28.908-0.2297-32.107-2.6668-37.141-4.2554-8.7905-11.209-12-26-12-9.7032 0-12.892 0.52419-16.662 2.7388-10.887 6.3954-12.654 14.608-11.803 54.858 0.4411 20.861 0.8384 24.382 3.2802 29.07 5.3434 10.257 19.088 14.661 35.065 11.234zm-886.55 37.669c-12.99-3.689-22.318-9.0078-30.966-17.656-15.924-15.924-19.092-29.488-18.022-77.169 0.56208-25.057 1.105-31.324 3.2518-37.54 9.6737-28.011 31.918-42.79 64.404-42.79 31.986 0 55.201 14.915 64.18 41.233 2.7166 7.9627 3.0815 11.597 3.1152 31.019 0.0352 20.33-0.18271 22.354-2.8698 26.667-5.7431 9.2167-6.3603 9.3333-49.376 9.3333-44.035 0-43.94-0.0207-42.705 9.1803 0.98509 7.3444 6.0865 13.809 13.953 17.683 5.3882 2.6532 8.2186 3.1067 18.37 2.9434 7.2133-0.11613 16.298-1.3013 22.776-2.9712 10.932-2.8184 14.817-2.6217 21.776 1.103 11.039 5.908 10.511 26.682-0.82653 32.516-15.377 7.9128-50.134 11.255-67.059 6.4488zm46.344-112.9c0.44689-8.6513-3.6423-16.035-11.011-19.882-4.1994-2.1925-7.743-2.7812-16.667-2.7686-14.439 0.0204-21.021 3.0752-25.193 11.694-2.7047 5.5873-3.7844 15.535-1.8915 17.428 0.50363 0.50364 12.954 0.75364 27.667 0.55556l26.751-0.36015zm136.32 112.82c-15.863-5.1288-26.554-13.096-34.9-26.009-9.0287-13.969-9.4538-16.582-10.322-63.449l-0.77772-41.971-11.394-1.362c-6.5363-0.78129-12.92-2.3622-14.972-3.7079-7.789-5.107-10.686-18.93-5.4399-25.956 5.2911-7.0868 9.1911-8.8928 20.841-9.651l10.965-0.71362 0.66667-21.572c0.72511-23.463 1.2944-25.294 9.8468-31.679 5.029-3.7547 15.277-3.7547 20.306 0 8.5241 6.3642 9.0907 8.1886 9.8318 31.662l0.68167 21.589 18 0.66858c19.217 0.71378 21.593 1.419 27.19 8.0703 4.4692 5.3114 4.8326 15.42 0.78946 21.962-4.3662 7.0646-10.288 8.9984-29.717 9.7046l-17.071 0.6205 0.40442 40.154c0.39562 39.28 0.47026 40.246 3.4283 44.393 7.5755 10.621 21.435 13.339 34.383 6.745 10.226-5.2082 14.879-5.6436 21.828-2.0426 7.651 3.9649 11.123 10.173 10.39 18.582-0.91104 10.458-10.082 18.833-26.099 23.832-10.91 3.4051-28.548 3.4642-38.86 0.13027zm122.26 1.0536c-34.061-8.0157-52.682-44.956-38.466-76.309 4.7854-10.554 10.062-16.538 20.536-23.289 13.198-8.5072 27.53-12.357 49.333-13.251 20.203-0.82878 21.997-1.5481 19.606-7.8608-1.9563-5.1629-6.1863-9.5063-12.607-12.945-4.1814-2.2393-7.6373-2.8548-16-2.8496-10.159 6e-3 -11.142 0.28245-20.667 5.8039-11.875 6.8843-17.724 8.0333-24.507 4.8143-9.3883-4.455-13.715-15.421-9.7902-24.813 3.6223-8.6695 21.245-20.082 36.964-23.938 4.0333-0.98939 12.733-1.7014 19.333-1.5822 28.159 0.50839 51.603 14.549 62.42 37.383l4.2466 8.9644 0.38789 56.35c0.34479 50.088 0.14379 56.865-1.8086 60.979-4.6682 9.8375-17.62 12.992-27.869 6.7885l-5.29-3.202-6.3542 3.2199c-3.4948 1.771-9.7904 4.1149-13.99 5.2088-8.2826 2.1574-27.349 2.4412-35.478 0.52819zm24.553-38.546c10.394-1.9398 23.444-8.6764 25.861-13.35 1.1153-2.1567 1.988-7.3647 1.988-11.864 0-10.585-1.5129-11.433-18.411-10.323-16.654 1.0939-27.338 4.1906-33.052 9.5794-3.8757 3.6553-4.5366 5.1675-4.5366 10.38 0 7.4435 3.5964 12.176 11.333 14.913 6.5159 2.3052 7.7587 2.3543 16.818 0.66355zm372.88 38.02c-16.51-4.1893-31.78-15.51-39.778-29.489-6.4924-11.348-7.8705-21.223-7.8879-56.525-0.01-17.233 0.5734-34.933 1.2931-39.333 3.825-23.386 23.013-42.859 48.009-48.723 10.182-2.3885 30.042-2.0318 39.541 0.71008 12.061 3.4817 22.624 9.7565 29.989 17.815 7.7316 8.4596 9.1367 11.461 9.1367 19.516 0 12.293-13.876 21.292-25.826 16.748-1.8332-0.69696-6.6449-4.2665-10.693-7.9323-8.7174-7.8945-15.17-10.022-27.707-9.1347-10.274 0.72721-16.37 3.7415-20.77 10.27-2.9212 4.3348-3.0046 5.3973-3.0046 38.314 0 31.3 0.2027 34.253 2.6846 39.118 4.7309 9.2732 19.068 13.728 34.124 10.602 6.1775-1.2825 8.957-2.8106 14.422-7.9295 8.4935-7.9556 11.23-9.3744 18.082-9.3744 11.201 0 18.674 7.5252 18.683 18.814 0.011 12.829-14.677 27.749-34.103 34.642-10.402 3.6911-35.115 4.7027-46.196 1.891zm306.7-0.58769c-15.846-5.0666-28.795-16.183-35.49-30.468-3.197-6.821-3.5734-9.169-3.5734-22.291 0-13.06 0.3848-15.487 3.5136-22.16 7.056-15.049 21.303-26.56 40.382-32.628 8.5396-2.716 14.777-3.6109 30.105-4.3191 18.766-0.86705 19.346-0.98192 19.762-3.9146 0.6328-4.4586-4.5521-11.883-10.878-15.576-11.499-6.7133-26.634-5.7578-40.411 2.5512-4.2937 2.5896-9.7176 5.0689-12.053 5.5095-6.0665 1.1444-12.978-1.5616-17.687-6.9243-3.3956-3.8674-4.0667-5.753-4.0667-11.428 0-8.7603 3.1324-13.819 12.592-20.333 23.514-16.194 54.384-17.859 80.038-4.3148 16.12 8.5104 28.14 24.784 31.423 42.543 0.8699 4.7059 1.2513 26.901 1.0072 58.617-0.3925 51.015-0.3945 51.046-3.4979 55.397-6.2705 8.7915-17.856 10.917-27.432 5.0323l-5.2044-3.1977-6.1289 3.1856c-14.296 7.4304-37.408 9.5117-52.399 4.7187zm36.862-40.068c4.4904-1.4943 10.394-4.5548 13.119-6.8012l4.955-4.0843v-10.544c0-10.231-0.1027-10.57-3.451-11.41-4.9953-1.2538-27.487 0.64366-35.366 2.9836-3.7073 1.101-8.94 4.0174-11.628 6.481-4.2437 3.8891-4.8876 5.2716-4.8876 10.494 0 4.8496 0.7652 6.8136 3.9499 10.138 6.9949 7.301 17.11 8.1342 33.309 2.7436zm-1346.1 35.615c-9.4059-6.2836-9.1928-4.4011-9.1951-81.22-0.0013-45.454 0.4807-70.191 1.4161-72.667 3.9481-10.45 14.52-15.389 25.354-11.845 6.0399 1.9755 6.859 1.9456 13.495-0.49359 14.724-5.4116 36.146-6.0529 51.426-1.5397 4.0591 1.1989 14.619 6.564 21.113 10.726 2.5094 1.6085 3.642 1.287 10.667-3.0281 10.013-6.1509 16.603-8.426 29.505-10.187 35.496-4.8457 66.457 13.043 75.789 43.789 1.471 4.8467 1.8721 17.756 1.8835 60.623 0.012 47.276-0.2683 55.061-2.1275 58.979-4.7263 9.96-19.216 13.238-28.207 6.3801-8.2096-6.2617-8.3177-7.0769-8.3177-62.694 0-47.564-0.14446-50.587-2.6668-55.797-4.2554-8.7905-11.209-12-26-12-13.271 0-18.587 2.0262-23.861 9.0945-2.7136 3.6372-2.828 5.5041-3.4727 56.667-0.60556 48.056-0.89357 53.362-3.1419 57.884-6.5105 13.096-25.619 13.933-33.786 1.4799-2.1872-3.3351-2.4663-8.5203-3.0724-57.064-0.75177-60.212-0.5081-58.801-11.213-64.936-4.6116-2.6432-7.3058-3.1257-17.453-3.1257-13.271 0-18.587 2.0262-23.861 9.0944-2.7154 3.6395-2.8276 5.4923-3.4727 57.333-0.64896 52.15-0.74389 53.696-3.5746 58.239-5.8882 9.4495-18.241 12.311-27.228 6.3068zm1445.9 0.28778c-2.3128-1.4816-5.3128-4.9215-6.6666-7.6442-2.2994-4.6236-2.4618-9.5697-2.4618-74.95 0-63.921 0.201-70.367 2.3132-74.228 4.9808-9.1041 15.255-12.857 24.772-9.0487 5.4129 2.1658 5.9181 2.1437 13.271-0.58192 14.825-5.4956 34.001-6.064 50.977-1.5112 13.905 3.7292 29.304 15.985 36.289 28.881 7.2612 13.405 7.7107 17.747 7.7084 74.436 0 46.896-0.2329 52.513-2.3333 56.693-6.8745 13.683-25.937 14.444-34.09 1.3599-2.8307-4.5427-2.9256-6.0894-3.5745-58.239-0.6451-51.841-0.7574-53.694-3.4727-57.333-5.2735-7.0682-10.59-9.0944-23.861-9.0944-10.148 0-12.842 0.48249-17.453 3.1257-10.705 6.1357-10.462 4.7247-11.213 64.936-0.6062 48.543-0.8854 53.729-3.0724 57.064-5.6674 8.6416-18.641 11.575-27.133 6.1356z" fill="#45444c"/>
 </g>
</svg>
