<?xml version="1.0" encoding="UTF-8" standalone="no"?>
<!-- Created with Inkscape (http://www.inkscape.org/) -->

<svg
   xmlns:dc="http://purl.org/dc/elements/1.1/"
   xmlns:cc="http://creativecommons.org/ns#"
   xmlns:rdf="http://www.w3.org/1999/02/22-rdf-syntax-ns#"
   xmlns:svg="http://www.w3.org/2000/svg"
   xmlns="http://www.w3.org/2000/svg"
   xmlns:sodipodi="http://sodipodi.sourceforge.net/DTD/sodipodi-0.dtd"
   xmlns:inkscape="http://www.inkscape.org/namespaces/inkscape"
   id="svg2997"
   version="1.1"
   inkscape:version="0.48.5 r10040"
   width="261"
   height="243"
   sodipodi:docname="camelia-logo-simple_ant.png">
  <metadata
     id="metadata3003">
    <rdf:RDF>
      <cc:Work
         rdf:about="">
        <dc:format>image/svg+xml</dc:format>
        <dc:type
           rdf:resource="http://purl.org/dc/dcmitype/StillImage" />
        <dc:title></dc:title>
      </cc:Work>
    </rdf:RDF>
  </metadata>
  <defs
     id="defs3001" />
  <sodipodi:namedview
     pagecolor="#ffffff"
     bordercolor="#666666"
     borderopacity="1"
     objecttolerance="10"
     gridtolerance="10"
     guidetolerance="10"
     inkscape:pageopacity="0"
     inkscape:pageshadow="2"
     inkscape:window-width="640"
     inkscape:window-height="480"
     id="namedview2999"
     showgrid="false"
     inkscape:zoom="0.97119342"
     inkscape:cx="130.5"
     inkscape:cy="150.62321"
     inkscape:window-x="602"
     inkscape:window-y="337"
     inkscape:window-maximized="0"
     inkscape:current-layer="svg2997" />
  <path
     style="fill:#000000"
     d="m 141,233.78347 c -17.77025,-7.46984 -28.85935,-25.72332 -27.75403,-45.68519 0.26186,-4.72906 0.79062,-9.33064 1.17503,-10.22574 0.54948,-1.27947 -0.0775,-1.77311 -2.93205,-2.30863 -1.99704,-0.37465 -4.24583,-0.91712 -4.99732,-1.2055 -0.87011,-0.33389 -2.15897,1.02937 -3.54877,3.75359 -1.7374,3.40558 -2.07077,5.35968 -1.63489,9.58295 0.54786,5.30834 -0.54197,7.29294 -1.677684,3.05505 C 98.501166,186.5367 98.996323,181.92753 101,178 c 1.1,-2.15618 2,-4.15411 2,-4.43984 0,-0.28573 -1.8889,-1.48316 -4.197562,-2.66095 l -4.197563,-2.14144 -2.29747,2.87112 c -1.889018,2.36067 -2.298354,4.08164 -2.302438,9.68013 -0.0057,7.82449 -1.428949,8.20236 -2.327219,0.61788 -0.499616,-4.21848 -0.179994,-5.97566 1.796363,-9.87581 2.211661,-4.3645 2.275015,-4.87339 0.791414,-6.35699 -1.483602,-1.48361 -2.100172,-1.11564 -7.702139,4.5966 -9.743412,9.9352 -20.987344,14.722 -34.523485,14.69743 -30.490551,-0.0553 -49.9919483,-27.7893 -37.491471,-53.3186 5.581117,-11.39813 19.312661,-21.29844 33.068327,-23.84195 l 6.116757,-1.13103 -8.72957,-8.598276 C 34.226637,91.422899 31.458062,87.822716 28.62422,82 14.985513,53.976447 23.67992,23.6693 48.939241,11.185465 56.217218,7.5884944 56.661649,7.501738 67.448137,7.5723798 80.281605,7.6564278 86.304445,9.4158744 95.775713,15.84769 120.23107,32.455005 129.25623,64.826799 116.4672,90.064734 c -1.29603,2.557585 -3.53932,6.055954 -4.98509,7.774152 -4.09809,4.870304 -2.23009,8.399884 5.08323,9.604744 4.05873,0.66868 4.07185,0.66033 8.07202,-5.13693 5.75888,-8.346078 7.36689,-12.39478 7.33084,-18.457829 -0.0289,-4.858926 -0.16299,-5.175585 -1.46394,-3.457061 -0.78767,1.040496 -1.60018,2.390496 -1.80558,3 C 128.3103,84.544348 125,82.453086 125,81.055187 125,80.204426 132.81262,75 134.08974,75 c 0.50064,0 0.91034,3.2625 0.91043,7.25 1.6e-4,6.629965 -0.39551,8.036733 -4.62648,16.449188 C 125.71781,107.95646 125.33181,111 128.81363,111 c 2.56558,0 4.24707,-2.19908 8.571,-11.209308 2.68711,-5.599404 5.12024,-8.952017 8.89033,-12.25 C 149.12984,85.043311 151.76865,83 152.13899,83 c 0.85598,0 2.257,9.937347 1.50678,10.687562 -0.30773,0.307733 -1.26498,0.288804 -2.12721,-0.04206 -1.11172,-0.426607 -1.38358,-1.335105 -0.93472,-3.123539 0.34814,-1.387077 0.24669,-2.507738 -0.22543,-2.490358 -1.11085,0.0409 -5.49302,4.058483 -7.13328,6.539816 -2.53007,3.827404 -7.19039,13.994539 -7.78903,16.992879 -0.53357,2.67239 -0.15064,3.41605 2.99412,5.81468 2.31365,1.76471 4.54635,2.6376 6.23005,2.4357 2.26139,-0.27118 2.81411,-1.06048 3.99863,-5.71005 2.07895,-8.16047 6.14925,-14.906911 13.3411,-22.112592 24.79302,-24.840698 68.35183,-22.175885 86.08882,5.266686 5.11649,7.916206 6.98143,14.385146 6.98855,24.241276 0.01,13.77175 -5.02313,24.55278 -16.43628,35.20712 -11.75204,10.9707 -25.89523,15.8305 -43.72981,15.02618 l -10.58873,-0.47754 3.26974,6.49881 c 4.45464,8.85386 6.05804,18.63766 4.53118,27.64884 C 187.8488,230.63156 164.42956,243.63223 141,233.78347 z m 22.95653,-12.26099 c 7.4693,-3.86253 12.89445,-15.30641 11.55257,-24.36912 -1.06305,-7.17952 -4.31997,-13.7243 -8.95651,-17.99812 -10.91838,-10.06421 -25.81918,-7.4854 -32.20865,5.57421 -10.28392,21.01958 10.40529,46.72551 29.61259,36.79303 z M 146.76939,206.93075 C 143.17316,204.83522 140,197.64723 140,191.5964 c 0,-8.66044 2.70886,-12.5063 8.85,-12.5646 6.14238,-0.0583 12.12677,8.4421 12.14442,17.25032 0.008,3.93544 -2.46398,9.36363 -4.84402,10.63739 -2.50863,1.34257 -7.08684,1.34806 -9.38101,0.0112 z m -14.13726,-34.52713 c 2.58612,-0.87801 6.42186,-2.73451 8.52388,-4.12556 3.64206,-2.4102 9.84399,-10.41117 9.84399,-12.6995 0,-0.65778 -2.46869,-1.07856 -6.32784,-1.07856 -5.43362,0 -6.86216,-0.40754 -10.10885,-2.88391 -2.07955,-1.58615 -4.62214,-4.73615 -5.65019,-7 -3.63402,-8.00235 -1.93103,-14.87011 5.20676,-20.99768 4.26852,-3.66439 4.32916,-3.79947 2.38012,-5.30183 -3.32174,-2.56046 -15.75636,-8.16644 -19.63732,-8.85322 l -3.63733,-0.64367 0.49752,4.41399 c 0.55429,4.9176 -1.76815,10.62916 -5.87555,14.44971 -6.93153,6.44745 -19.683547,5.51486 -25.119029,-1.83703 C 81.570866,124.28086 80.27108,123 79.839876,123 c -0.431203,0 -1.51615,2.51849 -2.410993,5.59664 -4.976443,17.11836 9.06466,37.00106 31.071117,43.99781 5.7256,1.8204 18.50587,1.71934 24.13213,-0.19083 z m -23.17189,-7.42312 c -3.84647,-1.1752 -11.057061,-7.30016 -12.986463,-11.03121 -1.986392,-3.84126 -1.926653,-9.56153 0.10801,-10.3423 2.75088,-1.05561 3.418213,-0.67635 3.418213,1.94267 0,3.93897 2.66765,8.19704 7.18591,11.47006 5.12459,3.71223 8.99592,3.87791 11.22213,0.48028 2.38685,-3.64279 4.59196,-3.237 4.59196,0.84501 0,5.77227 -6.28454,8.85216 -13.53976,6.63549 z m -54.897669,1.72062 c 12.201982,-6.23399 18.242899,-19.05092 13.889701,-29.46959 -3.428035,-8.20444 -10.108135,-12.1748 -20.54255,-12.20957 -11.897158,-0.0397 -22.799648,7.33707 -26.38182,17.85017 -1.997381,5.86199 -1.900104,9.72908 0.367961,14.62787 5.354848,11.56592 19.976735,15.68442 32.666708,9.20112 z m -14.16291,-11.07457 c -4.92689,-2.23139 -5.889651,-7.67042 -2.377435,-13.43112 2.333197,-3.82688 10.70557,-8.17065 15.777434,-8.18566 9.174668,-0.0272 13.113734,7.40738 7.95034,15.00536 -4.242393,6.24272 -14.886604,9.53884 -21.350339,6.61142 z M 225.16,158.40261 c 1.463,-0.74849 3.98686,-2.9706 5.60857,-4.93801 7.70316,-9.34527 6.73193,-23.7325 -2.23375,-33.0896 -5.27798,-5.50841 -7.5034,-5.69476 -3.59628,-0.30115 8.58061,11.84519 4.96215,29.92308 -7.1644,35.79344 -2.42308,1.17299 -5.95101,2.17989 -7.83986,2.23756 l -3.43428,0.10486 4,1.34054 c 4.38883,1.47086 10.47282,0.99458 14.66,-1.14764 z m -23.87788,-1.74974 c 4.3619,-1.82606 10.38661,-8.71618 13.58192,-15.53286 2.16379,-4.61611 2.63201,-7.04904 2.6212,-13.62001 -0.0155,-9.44592 -0.8271,-11.22613 -9.41909,-20.66181 C 204.72977,103.17419 202,99.911691 202,99.588188 c 0,-1.496205 15.24905,-0.446195 21.48295,1.479262 9.72747,3.00451 13.2773,6.62375 15.1203,15.41596 2.10558,10.04484 4.92275,13.59059 8.19675,10.31659 1.8879,-1.8879 1.45377,-13.64984 -0.67545,-18.3 -4.17936,-9.127609 -17.41183,-17.87014 -31.93997,-21.102345 -6.76272,-1.504563 -8.26111,-1.514283 -17.35038,-0.112548 -15.52657,2.394486 -27.63597,9.499395 -32.20782,18.897203 -3.65301,7.50902 -4.98644,17.97091 -3.09258,24.26375 0.80641,2.67949 1.4662,6.27516 1.4662,7.99036 0,4.95115 3.6217,9.38296 9.99721,12.23342 4.66174,2.08424 21.04033,7.19964 23.28491,7.27239 0.98016,0.0318 3.23016,-0.54844 5,-1.28936 z M 187,144.89332 c -3.575,-1.05578 -8.11338,-2.35955 -10.08529,-2.89725 -4.39637,-1.19882 -5.95227,-4.16942 -6.66586,-12.72678 -0.61605,-7.38761 0.99272,-13.97179 4.28009,-17.51707 3.07617,-3.31751 13.5523,-9.65381 16.51541,-9.98905 1.94262,-0.21978 3.03905,0.97328 6.65066,7.23683 7.63706,13.24477 10.02661,24.56971 6.67463,31.63348 -3.1804,6.70219 -6.41415,7.49526 -17.36964,4.25984 z m 5.80202,-7.29094 c 11.62906,-6.01362 9.39866,-22.7857 -3.34812,-25.17701 -10.16243,-1.90648 -18.83677,10.13221 -14.01673,19.45314 3.20838,6.2043 11.28657,8.86707 17.36485,5.72387 z m -12.14703,-4.43112 c -2.28419,-2.524 -2.18066,-9.38556 0.17375,-11.51627 1.00581,-0.91025 3.48081,-1.65499 5.5,-1.65499 4.7778,0 7.67126,2.82886 7.67126,7.5 0,4.74223 -2.88464,7.5 -7.84501,7.5 -2.455,0 -4.44331,-0.66111 -5.5,-1.82874 z m -27.48022,16.35595 c 5.08272,-3.4538 7.40667,-9.65419 5.82292,-15.53578 -4.59012,-17.0464 -29.01107,-13.96392 -28.99395,3.6597 0.0111,11.39664 13.61531,18.36936 23.17103,11.87608 z m -10.08405,-5.61729 c -5.4497,-2.17898 -6.75331,-8.33824 -2.63617,-12.45537 2.99969,-2.9997 6.41533,-3.13134 9.91059,-0.38197 2.61978,2.06072 3.41016,5.74344 2.01368,9.38262 -0.50838,1.32482 -5.48298,4.71329 -6.57916,4.48141 -0.16481,-0.0349 -1.38384,-0.49687 -2.70894,-1.02669 z M 106.8029,124.66377 c 6.06525,-6.06526 5.54414,-15.2801 -1.22158,-21.60095 -3.70785,-3.464046 -12.717016,-4.029102 -17.399349,-1.09129 -4.275631,2.68264 -7.593572,9.85273 -6.630152,14.32781 1.572648,7.30493 5.254041,11.27629 11.723229,12.64663 4.946554,1.0478 9.703712,-0.45806 13.527852,-4.2822 z m -15.628586,-4.97822 c -2.884273,-3.07017 -2.77173,-7.17904 0.280231,-10.231 C 96.331241,104.57785 104,107.85424 104,114.81445 c 0,6.6391 -8.228748,9.76431 -12.825686,4.8711 z M 79.673253,106.40911 C 80.54916,104.12653 77.789618,98.873022 69.905404,87.813461 66.107432,82.485864 63,77.926589 63,77.681738 63,77.436887 66.9375,76.909237 71.75,76.509183 81.988144,75.658105 86.342502,73.754343 91.301185,67.961236 96.094206,62.36167 102,49.979276 102,45.529549 102,37.486747 96.373212,28.834295 86.960427,22.402825 l -6.802979,-4.64827 -9.328724,0.409572 C 62.890937,18.512631 60.460099,19.060612 54.525597,21.839321 38.201302,29.482839 35.719329,34.489323 38.581882,54 c 2.246463,15.311511 4.302133,19.056629 18.676187,34.025181 6.733062,7.011535 13.640848,14.374229 15.350635,16.361529 3.306361,3.84303 6.063072,4.6322 7.064549,2.0224 z M 54.705131,64.25 C 51.369642,56.781504 48.196028,40.518587 49.619284,38.188001 50.792976,36.266077 68.03657,26.417326 71.330231,25.787702 c 3.995723,-0.76383 8.153269,1.107782 13.962646,6.285595 9.340127,8.32472 10.659339,12.852342 6.071812,20.838845 -3.307883,5.758748 -6.108423,8.884412 -9.577397,10.689268 -2.229,1.159715 -21.78023,6.392819 -23.900728,6.397295 C 57.549174,69.999417 56.117529,67.4125 54.705131,64.25 z m 25.581502,-3.817322 c 8.23106,-6.009332 7.437716,-19.643676 -1.447405,-24.874986 -9.047523,-5.326927 -20.795904,0.238205 -22.485724,10.651342 -0.843729,5.199295 2.709617,12.227097 7.499791,14.833075 4.588043,2.496012 12.586038,2.199406 16.433338,-0.609431 z M 66.07258,56.365141 C 61.618784,50.703057 64.894869,44 72.115981,44 c 6.075733,0 9.585901,5.898173 6.734315,11.315741 -1.593589,3.027571 -2.788303,3.651293 -7.027716,3.668946 -2.792494,0.01163 -4.17616,-0.618733 -5.75,-2.619546 z m 37.45683,28.855347 c 13.76859,-7.092131 17.85114,-22.353167 9.0012,-33.647487 -1.99557,-2.546752 -2.84671,-1.534607 -1.55859,1.85341 3.73438,9.822153 -3.41423,23.517796 -14.746944,28.252906 -4.143398,1.731222 -12.260613,2.218922 -16.725076,1.004878 -2.766961,-0.752433 -2.875478,-0.688945 -1.396975,0.81731 4.65143,4.738744 17.833686,5.629947 25.426385,1.718983 z"
     id="path3007"
     inkscape:connector-curvature="0" />
</svg>
