<?xml version="1.0" encoding="UTF-8" standalone="no"?>
<!-- Created with Inkscape (http://www.inkscape.org/) -->

<svg
   xmlns:dc="http://purl.org/dc/elements/1.1/"
   xmlns:cc="http://creativecommons.org/ns#"
   xmlns:rdf="http://www.w3.org/1999/02/22-rdf-syntax-ns#"
   xmlns:svg="http://www.w3.org/2000/svg"
   xmlns="http://www.w3.org/2000/svg"
   xmlns:sodipodi="http://sodipodi.sourceforge.net/DTD/sodipodi-0.dtd"
   xmlns:inkscape="http://www.inkscape.org/namespaces/inkscape"
   id="svg2997"
   version="1.1"
   inkscape:version="0.48.5 r10040"
   width="210"
   height="197"
   sodipodi:docname="raptor.png">
  <metadata
     id="metadata3003">
    <rdf:RDF>
      <cc:Work
         rdf:about="">
        <dc:format>image/svg+xml</dc:format>
        <dc:type
           rdf:resource="http://purl.org/dc/dcmitype/StillImage" />
        <dc:title></dc:title>
      </cc:Work>
    </rdf:RDF>
  </metadata>
  <defs
     id="defs3001" />
  <sodipodi:namedview
     pagecolor="#ffffff"
     bordercolor="#666666"
     borderopacity="1"
     objecttolerance="10"
     gridtolerance="10"
     guidetolerance="10"
     inkscape:pageopacity="0"
     inkscape:pageshadow="2"
     inkscape:window-width="1600"
     inkscape:window-height="837"
     id="namedview2999"
     showgrid="false"
     inkscape:zoom="2.3959391"
     inkscape:cx="105"
     inkscape:cy="98.5"
     inkscape:window-x="-4"
     inkscape:window-y="-4"
     inkscape:window-maximized="1"
     inkscape:current-layer="svg2997" />
  <path
     style="fill:#000000"
     d="m 83.504237,182.79486 c 0,-0.51286 0.700517,-1.93261 1.556704,-3.15498 1.490101,-2.12742 1.444504,-2.22251 -1.065741,-2.22251 -1.442345,0 -3.492862,0.46583 -4.556704,1.03518 -1.063843,0.56935 -1.927368,0.68185 -1.918946,0.25 0.03339,-1.7119 1.682018,-3.08873 5.984687,-4.99799 5.905076,-2.62032 7.976653,-5.04309 7.299664,-8.53719 -0.29305,-1.5125 -0.875258,-2.75 -1.293796,-2.75 -1.544349,0 -3.20938,3.02727 -2.574709,4.6812 0.579627,1.51048 0.420062,1.49413 -1.388125,-0.14225 -2.474532,-2.23943 -2.59518,-4.76663 -0.388348,-8.13469 1.343072,-2.04978 2.323693,-2.46688 5.207137,-2.21481 2.944683,0.25742 3.771117,-0.11716 4.830572,-2.18945 2.345323,-4.58744 1.587734,-10.5195 -2.28844,-17.9189 -2.122643,-4.052 -3.863989,-9.06006 -4.25,-12.22287 -0.538805,-4.41474 -1.021529,-5.41075 -2.74146,-5.65649 -3.465608,-0.49515 -4.904967,2.21117 -3.561275,6.69601 1.469625,4.90517 1.456605,11.51204 -0.03272,16.60225 l -1.170344,4 -0.871069,-4 c -0.479088,-2.2 -1.290384,-6.87796 -1.80288,-10.39547 -1.020281,-7.00269 -1.951986,-9.09496 -2.013326,-4.5212 -0.07387,5.50838 -1.156588,23.91677 -1.423229,24.19788 -0.146706,0.15466 -1.115195,-0.97034 -2.152197,-2.5 -1.563411,-2.30617 -1.85124,-4.40385 -1.685138,-12.28121 l 0.200317,-9.5 -2.516458,5.25 c -1.384053,2.8875 -2.936695,5.25 -3.450318,5.25 -1.339986,0 -1.152503,3.38135 0.266142,4.8 0.933333,0.93333 0.933333,1.2 0,1.2 -1.826504,0 -5.2,-3.76847 -5.2,-5.80883 0,-0.99485 1.50417,-4.25735 3.3426,-7.25 1.83843,-2.99264 5.148778,-8.36617 7.356328,-11.94117 l 4.013727,-6.5 6.143673,-0.29772 c 3.379019,-0.16374 6.143672,-0.65391 6.143672,-1.08926 0,-0.83024 -15.249652,-12.113018 -16.371788,-12.113018 -0.356202,0 -1.659722,2.137498 -2.89671,4.749998 -2.955898,6.24281 -5.715288,6.67208 -12.008771,1.86815 -9.428367,-7.196828 -13.333653,-7.962258 -15.570974,-3.05187 -1.883222,4.13322 -1.496217,4.66771 2.848243,3.93372 2.629585,-0.44427 4,-0.30308 4,0.4121 0,0.59835 -0.491522,1.0879 -1.092271,1.0879 -0.600749,0 -2.236435,0.9 -3.634858,2 -2.190738,1.72323 -2.281756,1.99833 -0.65773,1.98795 1.036673,-0.007 3.797359,-1.10553 6.134859,-2.44202 2.3375,-1.33648 4.25,-2.06675 4.25,-1.62281 0,1.60679 -4.317794,6.24721 -6.631323,7.12681 -1.302773,0.49531 -2.368677,1.29983 -2.368677,1.78781 0,1.45599 5.0201,0.45404 7.084168,-1.41391 1.053707,-0.95359 1.915832,-1.25406 1.915832,-0.66771 0,1.51 -5.844446,6.24388 -7.708691,6.24388 -4.408397,0 -14.291309,-9.63031 -14.291309,-13.92602 0,-3.71847 2.576046,-8.494558 6.385841,-11.8396 5.632759,-4.945628 11.437546,-4.252268 20.20855,2.413832 1.701915,1.29349 3.339444,2.35179 3.638952,2.35179 0.299509,0 1.334887,-2.9197 2.300839,-6.488212 1.281733,-4.735104 1.600601,-8.45034 1.180122,-13.75 -0.548359,-6.911444 -4.980131,-24.391021 -6.601484,-26.037249 -1.18945,-1.2077 -23.57338,-3.724538 -33.124813,-3.724538 -4.723404,0 -9.061176,-0.473169 -9.639493,-1.051486 -0.578317,-0.578317 -0.838696,-2.164626 -0.578619,-3.525131 0.435804,-2.279758 0.573517,-2.335999 1.75697,-0.71753 1.1331,1.549607 1.233906,1.405571 0.85724,-1.22487 -0.425594,-2.972129 -0.423369,-2.973557 0.74917,-0.480983 l 1.176033,2.5 0.639135,-3 0.639136,-3 0.735527,2.790898 c 0.861315,3.268188 2.711111,2.772038 2.020343,-0.541894 -0.461331,-2.213216 -0.446192,-2.21105 0.951367,0.136096 0.877976,1.474526 1.67768,1.968419 2.094696,1.293674 0.370996,-0.600285 1.302293,-0.850534 2.06955,-0.55611 1.029762,0.395157 1.250481,-0.07447 0.843001,-1.793674 -0.542562,-2.289125 -0.52474,-2.294756 1.04116,-0.32899 1.59317,2 1.59317,2 1.703921,0 0.06091,-1.1 0.337724,-1.4375 0.615137,-0.75 0.725296,1.797473 2.337719,1.540582 2.337719,-0.372445 0,-1.295122 0.28912,-1.382496 1.433088,-0.433087 1.139196,0.945449 1.85696,0.765484 3.5,-0.877556 1.136801,-1.136801 2.066912,-1.619736 2.066912,-1.073187 0,0.812233 2.768474,0.795564 5,-0.03011 0.275,-0.10175 1.485274,-0.106553 2.689499,-0.01067 1.204224,0.09588 3.427832,-0.4745 4.94135,-1.267513 l 2.751853,-1.441841 -4.640941,-0.989816 C 49.69348,32.12675 46.459309,31.807104 45.05895,31.960824 c -1.400358,0.153721 -2.787454,-0.111017 -3.082435,-0.588306 -0.29498,-0.477288 -1.196917,-0.614305 -2.004303,-0.304482 -0.843489,0.323677 -1.474489,-0.01396 -1.483288,-0.793674 -0.01182,-1.047078 -0.2367,-1.014417 -0.984687,0.143011 -0.64625,1 -0.974479,1.083333 -0.984687,0.25 -0.02377,-1.940254 -2.002643,-1.472433 -2.114993,0.5 -0.06645,1.166667 -0.36656,0.916667 -0.90032,-0.75 -0.680118,-2.123671 -0.826225,-2.198937 -0.970605,-0.5 -0.169966,2 -0.169966,2 -1.029395,0 -0.773684,-1.800459 -0.866442,-1.818276 -0.929715,-0.178571 -0.06605,1.71173 -0.172305,1.719408 -1.764225,0.127489 -1.591919,-1.59192 -1.731954,-1.585569 -2.325134,0.105456 -0.596911,1.701664 -0.670771,1.696262 -1.359855,-0.09946 -0.614694,-1.601871 -0.874258,-1.668639 -1.659553,-0.426889 -0.815383,1.289326 -0.941514,1.285849 -1.01649,-0.02802 -0.05766,-1.010486 -0.366067,-0.847314 -0.945028,0.5 -0.79219,1.843525 -0.870427,1.804406 -1,-0.5 -0.129573,-2.304406 -0.20781,-2.343525 -1,-0.5 -0.859429,2 -0.859429,2 -1.029395,0 -0.14438,-1.698937 -0.290487,-1.623671 -0.970605,0.5 l -0.80064,2.5 -0.19936,-2.5 -0.19936,-2.5 -0.80064,2.5 -0.80064,2.5 -0.09968,-2.643011 c -0.05482,-1.453656 -0.77468,-2.902033 -1.59968,-3.218615 -1.91816,-0.736067 -1.878254,-4.553521 0.07462,-7.138374 1.363863,-1.805228 3.042538,-2.053396 17.237318,-2.548292 8.649467,-0.301561 16.250308,-0.872145 16.890757,-1.267964 0.640449,-0.395819 3.106844,-0.01714 5.480878,0.84151 2.374034,0.85865 7.316324,2.609316 10.982865,3.890369 8.557551,2.989923 12.369062,5.753559 14.972084,10.855904 2.459231,4.820491 4.777182,16.826603 4.826589,24.999912 0.04269,7.06162 0.28185,7.204731 15.217692,9.106057 7.25289,0.923288 11.74786,2.029654 14.00001,3.445877 1.82445,1.147279 6.60074,3.748818 10.61397,5.781196 l 7.29679,3.695234 12.20321,-0.668554 c 18.91586,-1.036307 31.45327,-4.336257 34.13431,-8.984433 0.85454,-1.481527 0.67558,-2.083179 -0.89236,-3 -4.1516,-2.42757 -7.53873,-6.53721 -7.53873,-9.146816 0,-7.285645 12.41047,-11.773151 21.7965,-7.881402 2.49564,1.034771 4.73943,2.487599 4.98621,3.228508 0.34097,1.023697 7.8e-4,1.111596 -1.41701,0.366129 -1.02613,-0.539537 -3.72108,-1.288139 -5.98877,-1.663559 -4.56676,-0.756035 -10.99854,1.30067 -11.96799,3.82703 -0.90104,2.34806 1.33277,5.407654 4.44761,6.091787 6.54913,1.438431 9.08133,7.88338 5.68091,14.459064 -1.92539,3.723297 -10.0276,9.008153 -21.63675,14.113082 -13.72429,6.035027 -25.0614,12.442193 -29.30054,16.559203 -4.21262,4.09124 -8.92751,13.79343 -8.04869,16.56237 0.32118,1.01195 1.37365,2.26254 2.33882,2.77908 0.96517,0.51655 3.00865,2.74839 4.54106,4.95966 2.36042,3.40609 2.69366,4.67597 2.1806,8.30977 -0.33308,2.3591 -1.02787,9.26979 -1.54398,15.35709 -1.2221,14.41423 -4.16083,22.43219 -8.22181,22.43219 -1.04992,0 -2.16796,0.675 -2.48454,1.5 -0.31659,0.825 -1.02992,1.5 -1.5852,1.5 -1.03098,0 -0.68021,-2.91489 0.7822,-6.5 0.69071,-1.69326 0.58543,-1.81305 -0.68647,-0.78103 -1.95216,1.58398 -11.87129,1.22509 -11.87179,-0.42954 -4.8e-4,-1.55882 1.65835,-2.981 5.94008,-5.09267 4.09838,-2.02124 4.91944,-3.78907 2.16575,-4.66305 -2.78992,-0.88549 -3.48544,-3.89966 -1.69761,-7.35695 0.83141,-1.60775 1.22959,-3.20524 0.88486,-3.54998 -1.05289,-1.05289 -4.82189,-0.69834 -6.09345,0.57322 -0.93333,0.93333 -1.2,0.92323 -1.2,-0.0454 0,-2.34227 4.83124,-6.15455 7.79956,-6.15455 2.97534,0 6.14658,2.56843 6.27073,5.07874 0.13845,2.79972 1.78976,-2.61169 1.85494,-6.07874 0.062,-3.29677 -0.13241,-3.51006 -3.34768,-3.6732 -5.85945,-0.2973 -11.4947,-5.64541 -11.61918,-11.02714 -0.0229,-0.98981 -1.5312,-3.48499 -3.3518,-5.54484 l -3.31019,-3.74517 -0.61208,8.67327 c -0.54243,7.68631 -0.36865,9.1064 1.52717,12.47954 1.93703,3.44649 2.02814,4.28759 0.96389,8.8982 -0.64645,2.80056 -1.17536,6.81019 -1.17536,8.91029 0,2.10011 -0.90263,6.74075 -2.00584,10.31253 -2.25869,7.3128 -4.1702,9.07519 -11.664715,10.75474 -2.63843,0.59129 -5.591914,1.79432 -6.563297,2.67341 -0.971384,0.87904 -1.766152,1.17868 -1.766152,0.66581 z m -33,-162.877487 c 0,-0.833333 -0.888889,-1.5 -2,-1.5 -1.111111,0 -2,0.666667 -2,1.5 0,0.833333 0.888889,1.5 2,1.5 1.111111,0 2,-0.666667 2,-1.5 z"
     id="path3007"
     inkscape:connector-curvature="0" />
</svg>
