<?xml version="1.0" encoding="UTF-8" standalone="no"?>
<!-- Created with Inkscape (http://www.inkscape.org/) -->

<svg
   xmlns:dc="http://purl.org/dc/elements/1.1/"
   xmlns:cc="http://creativecommons.org/ns#"
   xmlns:rdf="http://www.w3.org/1999/02/22-rdf-syntax-ns#"
   xmlns:svg="http://www.w3.org/2000/svg"
   xmlns="http://www.w3.org/2000/svg"
   xmlns:sodipodi="http://sodipodi.sourceforge.net/DTD/sodipodi-0.dtd"
   xmlns:inkscape="http://www.inkscape.org/namespaces/inkscape"
   id="svg3025"
   version="1.1"
   inkscape:version="0.48.5 r10040"
   width="261"
   height="243"
   sodipodi:docname="camelia-logo-simple.png">
  <metadata
     id="metadata3031">
    <rdf:RDF>
      <cc:Work
         rdf:about="">
        <dc:format>image/svg+xml</dc:format>
        <dc:type
           rdf:resource="http://purl.org/dc/dcmitype/StillImage" />
        <dc:title></dc:title>
      </cc:Work>
    </rdf:RDF>
  </metadata>
  <defs
     id="defs3029" />
  <sodipodi:namedview
     pagecolor="#ffffff"
     bordercolor="#666666"
     borderopacity="1"
     objecttolerance="10"
     gridtolerance="10"
     guidetolerance="10"
     inkscape:pageopacity="0"
     inkscape:pageshadow="2"
     inkscape:window-width="640"
     inkscape:window-height="480"
     id="namedview3027"
     showgrid="false"
     inkscape:zoom="0.97119342"
     inkscape:cx="130.5"
     inkscape:cy="121.5"
     inkscape:window-x="0"
     inkscape:window-y="0"
     inkscape:window-maximized="0"
     inkscape:current-layer="svg3025" />
  <path
     style="fill:#000000"
     d="m 139.97034,232.81313 c -17.77025,-7.46984 -28.85935,-25.72332 -27.75403,-45.68519 0.26186,-4.72906 0.79062,-9.33064 1.17503,-10.22574 0.54948,-1.27947 -0.0775,-1.77311 -2.93205,-2.30863 -1.99704,-0.37465 -4.24583,-0.91712 -4.99732,-1.2055 -0.87011,-0.33389 -2.15897,1.02937 -3.54877,3.75359 -1.7374,3.40558 -2.070771,5.35968 -1.63489,9.58295 0.54786,5.30834 -0.541971,7.29294 -1.677685,3.05505 -1.12912,-4.2133 -0.633963,-8.82247 1.369714,-12.75 1.100001,-2.15618 2.000001,-4.15411 2.000001,-4.43984 0,-0.69686 -7.632343,-4.56016 -9.009055,-4.56016 -0.598801,0 -1.926796,1.87188 -2.951099,4.15974 -1.403628,3.1351 -1.722655,5.51343 -1.295167,9.65539 0.375407,3.63735 0.220029,5.28109 -0.459506,4.86112 -0.564689,-0.349 -1.257208,-3.00643 -1.53893,-5.9054 -0.409726,-4.21615 -0.04757,-6.19063 1.80988,-9.86745 2.136213,-4.22864 2.193002,-4.7257 0.709401,-6.2093 -1.483602,-1.48361 -2.100172,-1.11564 -7.702139,4.5966 -9.743412,9.9352 -20.987344,14.722 -34.523485,14.69743 C 16.519686,183.96249 -2.9817041,156.22849 9.5187659,130.69919 15.099886,119.30106 28.83143,109.40075 42.587096,106.85724 l 6.116757,-1.13103 -8.72957,-8.598278 C 33.196976,90.452562 30.428401,86.852372 27.594559,81.029662 13.955856,53.006112 22.650259,22.698961 47.90958,10.215126 55.187557,6.6181552 55.631988,6.5313992 66.418476,6.6020412 c 12.833468,0.08405 18.856308,1.843494 28.327576,8.2753098 24.455358,16.607315 33.480518,48.979111 20.691488,74.217041 -1.29603,2.55759 -3.53932,6.05596 -4.98509,7.77415 -4.33791,5.155328 -2.14797,8.605938 6.16136,9.708208 l 5.09347,0.67568 4.17376,-7.560988 c 4.38396,-7.9418 6.93728,-17.00959 5.69854,-20.23769 -0.69431,-1.80937 -0.82914,-1.78403 -2.53407,0.47625 -1.75573,2.32763 -4.11865,2.20496 -4.03284,-0.20936 0.0433,-1.21943 6.35036,-5.69098 8.02701,-5.69098 0.51186,0 0.93066,3.30072 0.93066,7.33494 0,6.82846 -0.34203,8.00066 -4.95332,16.97599 l -4.95332,9.641048 2.17582,1.52401 c 4.01438,2.81178 5.06875,1.93092 8.65369,-7.2296 2.84217,-7.262548 4.41577,-9.721888 9.27548,-14.496388 3.21893,-3.1625 6.24891,-5.75 6.73329,-5.75 0.99859,0 2.5747,9.827 1.71413,10.68756 -0.30773,0.30773 -1.26498,0.2888 -2.12721,-0.0421 -1.11172,-0.42661 -1.38358,-1.3351 -0.93472,-3.12354 0.9047,-3.60459 -0.73163,-3.13888 -5.41031,1.53981 -2.83404,2.83404 -5.10603,6.68793 -7.51654,12.749998 l -3.45476,8.68823 3.64888,3.2632 c 2.6331,2.35477 4.45403,3.18992 6.54107,3 2.60073,-0.23668 3.03068,-0.80689 4.2667,-5.65857 2.07898,-8.1605 6.14928,-14.906928 13.34112,-22.112588 24.79302,-24.8407 68.35183,-22.17589 86.08882,5.26668 5.11649,7.916208 6.98143,14.385148 6.98855,24.241278 0.01,13.77175 -5.02313,24.55278 -16.43628,35.20712 -11.75204,10.9707 -25.89523,15.8305 -43.72981,15.02618 l -10.58873,-0.47754 3.26974,6.49881 c 4.45464,8.85386 6.05804,18.63766 4.53118,27.64884 -4.27467,25.22815 -27.69391,38.22882 -51.12347,28.38006 z m 22.95653,-12.26099 c 7.4693,-3.86253 12.89445,-15.30641 11.55257,-24.36912 -1.06305,-7.17952 -4.31997,-13.7243 -8.95651,-17.99812 -10.91838,-10.06421 -25.81918,-7.4854 -32.20865,5.57421 -10.28392,21.01958 10.40529,46.72551 29.61259,36.79303 z m -17.18714,-14.59173 c -3.59623,-2.09553 -6.76939,-9.28352 -6.76939,-15.33435 0,-8.66044 2.70886,-12.5063 8.85,-12.5646 6.14238,-0.0583 12.12677,8.4421 12.14442,17.25032 0.008,3.93544 -2.46398,9.36363 -4.84402,10.63739 -2.50863,1.34257 -7.08684,1.34806 -9.38101,0.0112 z m -14.13726,-34.52713 c 2.58612,-0.87801 6.42186,-2.73451 8.52388,-4.12556 3.64206,-2.4102 9.84399,-10.41117 9.84399,-12.6995 0,-0.65778 -2.46869,-1.07856 -6.32784,-1.07856 -5.43362,0 -6.86216,-0.40754 -10.10885,-2.88391 -2.07955,-1.58615 -4.62214,-4.73615 -5.65019,-7 -3.63402,-8.00235 -1.93103,-14.87011 5.20676,-20.99768 4.26852,-3.66439 4.32916,-3.79947 2.38012,-5.30183 -3.32174,-2.56046 -15.75636,-8.16644 -19.63732,-8.85322 l -3.63733,-0.64367 0.49752,4.41399 c 0.55429,4.9176 -1.76815,10.62916 -5.87555,14.44971 -6.931531,6.44745 -19.683548,5.51486 -25.11903,-1.83703 -1.157425,-1.5655 -2.457211,-2.84636 -2.888415,-2.84636 -0.431203,0 -1.51615,2.51849 -2.410993,5.59664 -4.976443,17.11836 9.06466,37.00106 31.071118,43.99781 5.7256,1.8204 18.50587,1.71934 24.13213,-0.19083 z m -23.17189,-7.42312 c -3.84647,-1.1752 -11.057062,-7.30016 -12.986464,-11.03121 -1.986392,-3.84126 -1.926653,-9.56153 0.10801,-10.3423 2.75088,-1.05561 3.418213,-0.67635 3.418213,1.94267 0,3.93897 2.667651,8.19704 7.185911,11.47006 5.12459,3.71223 8.99592,3.87791 11.22213,0.48028 2.38685,-3.64279 4.59196,-3.237 4.59196,0.84501 0,5.77227 -6.28454,8.85216 -13.53976,6.63549 z m -54.89767,1.72062 c 12.201982,-6.23399 18.242899,-19.05092 13.889701,-29.46959 -3.428035,-8.20444 -10.108135,-12.1748 -20.54255,-12.20957 -11.897158,-0.0397 -22.799648,7.33707 -26.38182,17.85017 -1.997381,5.86199 -1.900104,9.72908 0.367961,14.62787 5.354848,11.56592 19.976735,15.68442 32.666708,9.20112 z M 39.37,154.65621 c -4.92689,-2.23139 -5.889651,-7.67042 -2.377435,-13.43112 2.333197,-3.82688 10.70557,-8.17065 15.777434,-8.18566 9.174668,-0.0272 13.113734,7.40738 7.95034,15.00536 -4.242393,6.24272 -14.886604,9.53884 -21.350339,6.61142 z m 184.76034,2.77606 c 1.463,-0.74849 3.98686,-2.9706 5.60857,-4.93801 7.70316,-9.34527 6.73193,-23.7325 -2.23375,-33.0896 -5.27798,-5.50841 -7.5034,-5.69476 -3.59628,-0.30115 8.58061,11.84519 4.96215,29.92308 -7.1644,35.79344 -2.42308,1.17299 -5.95101,2.17989 -7.83986,2.23756 l -3.43428,0.10486 4,1.34054 c 4.38883,1.47086 10.47282,0.99458 14.66,-1.14764 z m -23.87788,-1.74974 c 4.3619,-1.82606 10.38661,-8.71618 13.58192,-15.53286 2.16379,-4.61611 2.63201,-7.04904 2.6212,-13.62001 -0.0155,-9.44592 -0.8271,-11.22613 -9.41909,-20.66181 -3.33638,-3.664 -6.06615,-6.926498 -6.06615,-7.249998 0,-1.49621 15.24905,-0.4462 21.48295,1.479258 9.72747,3.00451 13.2773,6.62375 15.1203,15.41596 2.10558,10.04484 4.92275,13.59059 8.19675,10.31659 1.8879,-1.8879 1.45377,-13.64984 -0.67545,-18.3 -4.17936,-9.127608 -17.41183,-17.870138 -31.93997,-21.102348 -6.76272,-1.50456 -8.26111,-1.51428 -17.35038,-0.11254 -15.52657,2.39448 -27.63597,9.49939 -32.20782,18.897198 -3.65301,7.50902 -4.98644,17.97091 -3.09258,24.26375 0.80641,2.67949 1.4662,6.27516 1.4662,7.99036 0,4.95115 3.6217,9.38296 9.99721,12.23342 4.66174,2.08424 21.04033,7.19964 23.28491,7.27239 0.98016,0.0318 3.23016,-0.54844 5,-1.28936 z m -14.28212,-11.75955 c -3.575,-1.05578 -8.11338,-2.35955 -10.08529,-2.89725 -4.39637,-1.19882 -5.95227,-4.16942 -6.66586,-12.72678 -0.61605,-7.38761 0.99272,-13.97179 4.28009,-17.51707 3.07617,-3.31751 13.5523,-9.65381 16.51541,-9.98905 1.94262,-0.21979 3.03905,0.97328 6.65066,7.23683 7.63706,13.24477 10.02661,24.56971 6.67463,31.63348 -3.1804,6.70219 -6.41415,7.49526 -17.36964,4.25984 z m 5.80202,-7.29094 c 11.62906,-6.01362 9.39866,-22.7857 -3.34812,-25.17701 -10.16243,-1.90648 -18.83677,10.13221 -14.01673,19.45314 3.20838,6.2043 11.28657,8.86707 17.36485,5.72387 z m -39.62725,11.92483 c 5.08272,-3.4538 7.40667,-9.65419 5.82292,-15.53578 -4.59012,-17.0464 -29.01107,-13.96392 -28.99395,3.6597 0.0111,11.39664 13.61531,18.36936 23.17103,11.87608 z m -10.08405,-5.61729 c -5.4497,-2.17898 -6.75331,-8.33824 -2.63617,-12.45537 2.99969,-2.9997 6.41533,-3.13134 9.91059,-0.38197 2.61978,2.06072 3.41016,5.74344 2.01368,9.38262 -0.50838,1.32482 -5.48298,4.71329 -6.57916,4.48141 -0.16481,-0.0349 -1.38384,-0.49687 -2.70894,-1.02669 z m -36.28782,-19.24615 c 6.06525,-6.06526 5.54414,-15.2801 -1.22158,-21.60095 -3.70785,-3.464048 -12.717017,-4.029098 -17.39935,-1.09129 -4.275631,2.68264 -7.593572,9.85273 -6.630152,14.32781 1.572648,7.30493 5.254041,11.27629 11.723229,12.64663 4.946554,1.0478 9.703713,-0.45806 13.527853,-4.2822 z m -15.628587,-4.97822 c -2.884273,-3.07017 -2.77173,-7.17904 0.280231,-10.231 4.876696,-4.8767 12.545456,-1.60031 12.545456,5.3599 0,6.6391 -8.228749,9.76431 -12.825687,4.8711 z M 78.643592,105.43877 c 0.875907,-2.28258 -1.883635,-7.536088 -9.767849,-18.595648 -3.797972,-5.3276 -6.905404,-9.88687 -6.905404,-10.13172 0,-0.24485 3.9375,-0.7725 8.75,-1.17256 10.238144,-0.85108 14.592502,-2.75484 19.551185,-8.54795 4.793021,-5.59956 10.698816,-17.981955 10.698816,-22.431682 0,-8.042802 -5.626789,-16.695254 -15.039574,-23.126724 l -6.802979,-4.64827 -9.328724,0.409572 c -7.937787,0.348504 -10.368625,0.896485 -16.303127,3.675194 -16.324295,7.643518 -18.806268,12.650002 -15.943715,32.16068 2.246463,15.31151 4.302133,19.05663 18.676187,34.02518 6.733062,7.01153 13.640848,14.374228 15.350635,16.361528 3.306361,3.84303 6.063072,4.6322 7.064549,2.0224 z M 53.67547,63.279662 c -3.335489,-7.4685 -6.509103,-23.731414 -5.085847,-26.062 1.173692,-1.921924 18.417286,-11.770675 21.710947,-12.400299 3.995723,-0.76383 8.153269,1.107782 13.962646,6.285595 9.340127,8.32472 10.659339,12.852342 6.071812,20.838844 -3.307883,5.75875 -6.108423,8.88441 -9.577397,10.68927 -2.229,1.15971 -21.78023,6.39282 -23.900728,6.39729 -0.33739,7.2e-4 -1.769035,-2.5862 -3.181433,-5.7487 z m 25.581502,-3.81732 c 8.23106,-6.00934 7.437716,-19.643679 -1.447405,-24.874989 -9.047523,-5.326927 -20.795904,0.238205 -22.485724,10.651342 -0.843729,5.199295 2.709617,12.227097 7.499791,14.833077 4.588043,2.49601 12.586038,2.1994 16.433338,-0.60943 z m 23.242778,24.78781 c 13.76859,-7.09213 17.85114,-22.35317 9.0012,-33.64749 -1.99557,-2.546752 -2.84671,-1.534607 -1.55859,1.85341 3.73438,9.82215 -3.41423,23.5178 -14.746945,28.25291 -4.143398,1.73122 -12.260613,2.21892 -16.725076,1.00487 -2.766961,-0.75243 -2.875478,-0.68894 -1.396975,0.81731 4.65143,4.73875 17.833686,5.62995 25.426386,1.71899 z"
     id="path3035"
     inkscape:connector-curvature="0" />
</svg>
